<svg width="146" height="57" viewBox="0 0 146 57" fill="none" xmlns="http://www.w3.org/2000/svg">
<g clip-path="url(#clip0_31637_8395)">
<path d="M64.8543 41.2478C82.5963 51.4456 100.263 54.0502 104.313 47.0657C108.364 40.0812 97.2646 26.1523 79.5227 15.9545C61.7808 5.75689 44.1145 3.15205 40.0639 10.1366C36.0134 17.1211 47.1125 31.0502 64.8543 41.2478Z" stroke="#959595" stroke-width="0.160088" stroke-miterlimit="10"/>
<path d="M61.8163 38.9273C76.3025 53.3491 92.6897 60.417 98.418 54.7142C104.146 49.0113 97.0468 32.6972 82.5605 18.2754C68.0744 3.85375 51.6872 -3.21435 45.9588 2.48854C40.2305 8.19133 47.3301 24.5056 61.8163 38.9273Z" stroke="#CACACA" stroke-width="0.160088" stroke-miterlimit="10"/>
</g>
<path d="M20.8273 23.2192C20.2262 23.839 19.4185 24.3368 18.4042 24.7125C17.3899 25.0694 16.1126 25.2478 14.5723 25.2478C13.1072 25.2478 11.8769 25.0881 10.8814 24.7688C9.90461 24.4307 9.10631 23.9705 8.48645 23.3882C7.88537 22.8059 7.45335 22.1297 7.19038 21.3596C6.94619 20.5707 6.8241 19.7348 6.8241 18.852C6.8241 17.9504 6.9368 17.0957 7.1622 16.288C7.40639 15.4803 7.81963 14.7853 8.40192 14.203C8.98421 13.602 9.77313 13.1324 10.7687 12.7943C11.7642 12.4374 13.0321 12.2589 14.5723 12.2589C16.0938 12.2589 17.3429 12.428 18.3197 12.7661C19.3152 13.0854 20.1135 13.5362 20.7146 14.1185H23.4194C23.6073 13.4423 23.9923 12.9539 24.5746 12.6534C25.1757 12.3341 25.927 12.1744 26.8287 12.1744C27.8242 12.1744 28.6413 12.3998 29.2799 12.8506C29.9186 13.2826 30.3036 13.9776 30.4351 14.9356C30.5666 15.7245 30.6605 16.4289 30.7169 17.0488C30.7732 17.6498 30.8014 18.2415 30.8014 18.8238C30.8014 19.3873 30.7732 19.9696 30.7169 20.5707C30.6605 21.1718 30.5666 21.8668 30.4351 22.6557C30.3036 23.6136 29.9186 24.318 29.2799 24.7688C28.6413 25.2008 27.8242 25.4169 26.8287 25.4169C25.8707 25.4169 25.0724 25.2384 24.4337 24.8815C23.8139 24.5246 23.4476 23.9705 23.3349 23.2192H20.8273ZM12.4874 18.0631C12.8818 18.6078 13.4078 19.0774 14.0652 19.4718C14.7414 19.8475 15.4364 20.1199 16.1502 20.2889C16.3192 20.3265 16.4601 20.3077 16.5728 20.2326C16.6855 20.1574 16.7606 20.0635 16.7982 19.9508C16.8358 19.8381 16.8358 19.7254 16.7982 19.6127C16.7794 19.4812 16.7137 19.3967 16.601 19.3591C15.9248 19.1525 15.2955 18.8802 14.7132 18.5421C14.1497 18.1852 13.5956 17.7437 13.0509 17.2178C12.957 17.1427 12.8536 17.1239 12.7409 17.1615C12.647 17.1802 12.5625 17.2366 12.4874 17.3305C12.4122 17.4244 12.3653 17.5371 12.3465 17.6686C12.3277 17.8001 12.3747 17.9316 12.4874 18.0631ZM23.673 19.3591C23.6918 19.115 23.6918 18.8802 23.673 18.6548C23.673 18.4106 23.6636 18.1664 23.6448 17.9222H22.3488C22.3675 18.0725 22.3769 18.2321 22.3769 18.4012C22.3769 18.5514 22.3769 18.7017 22.3769 18.852V19.3591H23.673ZM8.03564 35.6164C7.88537 35.3346 7.77267 35.0059 7.69754 34.6302C7.64118 34.2733 7.61301 33.8977 7.61301 33.5032C7.61301 33.1088 7.65058 32.7237 7.72571 32.348C7.81963 31.9536 7.95111 31.5967 8.12017 31.2774C8.34557 30.789 8.74942 30.4321 9.33171 30.2067C9.93279 29.9813 10.6841 29.8686 11.5857 29.8686C12.2807 29.8686 13.0415 29.8686 13.868 29.8686C14.7132 29.8498 15.5585 29.8404 16.4037 29.8404C17.2678 29.8216 18.1037 29.8028 18.9114 29.7841C19.7191 29.7465 20.4328 29.6995 21.0527 29.6432C21.203 29.6244 21.3063 29.5774 21.3626 29.5023C21.4378 29.4272 21.4659 29.352 21.4472 29.2769C21.4472 29.183 21.4002 29.1078 21.3063 29.0515C21.2311 28.9764 21.1278 28.9388 20.9963 28.9388C19.7191 28.9951 18.4606 29.0421 17.2208 29.0797C15.9811 29.0984 14.7414 29.1266 13.5017 29.1642C12.4122 29.183 11.4918 29.1924 10.7405 29.1924C9.98914 29.1924 9.37867 29.1454 8.90908 29.0515C8.45827 28.9576 8.12956 28.8073 7.92294 28.6007C7.7351 28.3753 7.64118 28.056 7.64118 27.6427C7.64118 27.2295 7.75389 26.9102 7.97929 26.6848C8.22348 26.4594 8.58976 26.2997 9.07813 26.2058C9.58529 26.0931 10.2333 26.0179 11.0222 25.9804C11.8112 25.9428 12.7597 25.8958 13.868 25.8395C14.6193 25.8019 15.4552 25.7737 16.3756 25.755C17.296 25.7174 18.2445 25.6986 19.2213 25.6986C20.2168 25.6986 21.2124 25.708 22.2079 25.7268C23.2222 25.7456 24.1802 25.7831 25.0818 25.8395C26.3779 25.8958 27.4673 26.0273 28.3501 26.2339C29.2517 26.4406 29.8153 26.835 30.0407 27.4173C30.2473 27.962 30.3412 28.488 30.3224 28.9951C30.3036 29.5023 30.2097 29.9437 30.0407 30.3194C29.8716 30.7514 29.5429 31.0895 29.0545 31.3337C28.5849 31.5591 27.9839 31.6624 27.2513 31.6436C24.8094 31.6061 22.5272 31.6342 20.4047 31.7282C18.3009 31.8033 16.3662 31.9536 14.6005 32.179C14.4315 32.2165 14.3094 32.2729 14.2342 32.348C14.1779 32.4232 14.1591 32.5077 14.1779 32.6016C14.1967 32.6767 14.253 32.7425 14.3469 32.7988C14.4596 32.8552 14.6005 32.874 14.7696 32.8552C16.0093 32.6861 17.3429 32.5546 18.7705 32.4607C20.198 32.348 21.6726 32.2917 23.194 32.2917C24.3586 32.2917 25.4011 32.3105 26.3215 32.348C27.2419 32.3856 28.0214 32.4889 28.6601 32.6579C29.3175 32.8082 29.8153 33.0336 30.1534 33.3342C30.5103 33.6347 30.6887 34.0479 30.6887 34.5739C30.7075 35.175 30.5572 35.6539 30.2379 36.0108C29.9374 36.3865 29.5147 36.6776 28.97 36.8843C28.4253 37.0909 27.7678 37.2412 26.9977 37.3351C26.2464 37.4478 25.4293 37.5417 24.5465 37.6168C22.8371 37.7671 21.1936 37.8516 19.6157 37.8704C18.0567 37.8892 16.3944 37.8516 14.6287 37.7577C12.6376 37.6638 11.1162 37.4384 10.0643 37.0815C9.03117 36.7246 8.35496 36.2362 8.03564 35.6164Z" fill="black"/>
<path d="M50.7551 24.9661C50.7551 24.7594 50.7457 24.5622 50.7269 24.3744C50.7269 24.1677 50.7269 23.9611 50.7269 23.7545H50.0789C49.7596 23.7545 49.4778 23.7075 49.2336 23.6136C48.9895 23.5197 48.7734 23.3601 48.5856 23.1346C48.4166 22.8905 48.2851 22.5711 48.1911 22.1767C48.0972 21.7634 48.0503 21.2469 48.0503 20.627C48.0503 19.4061 48.2287 18.5514 48.5856 18.0631C48.9613 17.5559 49.459 17.3117 50.0789 17.3305H50.3607C50.3419 17.1615 50.3231 16.9924 50.3043 16.8234C50.2855 16.6355 50.2667 16.4571 50.248 16.288C50.0977 14.8792 50.3607 13.8461 51.0369 13.1887C51.7131 12.5125 52.6241 12.1744 53.7699 12.1744C54.7654 12.1744 55.5825 12.4562 56.2211 13.0197C56.8786 13.5832 57.2636 14.4472 57.3763 15.6118C57.6957 18.6735 57.8553 21.848 57.8553 25.1351C57.8553 28.4222 57.6957 31.6061 57.3763 34.6866C57.2636 35.8136 56.8786 36.6589 56.2211 37.2224C55.5825 37.7859 54.7654 38.0676 53.7699 38.0676C53.2064 38.0676 52.6898 37.9831 52.2202 37.8141C51.7506 37.6638 51.3562 37.429 51.0369 37.1097C50.7175 36.7903 50.4827 36.3865 50.3325 35.8981C50.1822 35.4285 50.1446 34.8744 50.2198 34.2358C50.2761 33.7474 50.3231 33.2778 50.3607 32.827C50.417 32.3574 50.464 31.8784 50.5015 31.3901L49.9099 31.4182H49.8253C49.8065 32.5265 49.5717 33.4375 49.1209 34.1512C48.6701 34.865 48.0784 35.4285 47.3459 35.8418C46.6133 36.255 45.7775 36.5462 44.8383 36.7152C43.9179 36.8843 42.9787 36.9688 42.0207 36.9688C39.5601 36.9688 37.5972 36.5837 36.1321 35.8136C34.6857 35.0435 33.8592 33.954 33.6526 32.5452C33.4648 31.3619 33.3615 30.1879 33.3427 29.0233C33.3239 27.8399 33.4272 26.7411 33.6526 25.7268C33.7653 25.1821 33.8968 24.6843 34.0471 24.2335C34.2161 23.7639 34.4321 23.3694 34.6951 23.0501C34.9769 22.712 35.3244 22.449 35.7376 22.2612C36.1508 22.0734 36.6674 21.9795 37.2873 21.9795C37.7381 21.9795 38.1325 21.9795 38.4706 21.9795C38.8275 21.9607 39.1656 21.9419 39.4849 21.9231C39.8043 21.8855 40.133 21.848 40.4711 21.8104C40.828 21.7541 41.2318 21.6883 41.6826 21.6132C41.7953 21.5944 41.8798 21.538 41.9362 21.4441C41.9925 21.3502 42.0207 21.2469 42.0207 21.1342C42.0207 21.0215 41.9925 20.9276 41.9362 20.8524C41.8798 20.7585 41.7953 20.721 41.6826 20.7397C41.2506 20.7961 40.8749 20.8524 40.5556 20.9088C40.2551 20.9464 39.9545 20.9839 39.654 21.0215C39.3535 21.0403 39.0435 21.0591 38.7242 21.0778C38.4237 21.0966 38.0668 21.106 37.6535 21.106C36.8834 21.106 36.2448 21.0309 35.7376 20.8806C35.2304 20.7303 34.8172 20.5143 34.4979 20.2326C34.1973 19.932 33.9813 19.5658 33.8498 19.1337C33.7184 18.7017 33.6526 18.2039 33.6526 17.6404C33.6526 15.3676 35.0426 13.9495 37.8226 13.3859C38.3861 13.2732 38.8651 13.1981 39.2595 13.1605C39.6728 13.1042 40.0484 13.076 40.3866 13.076C40.7434 13.0572 41.1003 13.0666 41.4572 13.1042C41.8141 13.123 42.2367 13.1699 42.7251 13.2451C43.2886 13.3202 43.824 13.4329 44.3311 13.5832C44.8383 13.7334 45.2891 13.9495 45.6835 14.2312C46.0968 14.513 46.4443 14.8792 46.726 15.3301C47.0266 15.7621 47.2332 16.2974 47.3459 16.9361C47.5713 18.0631 47.684 19.2277 47.684 20.4298C47.684 21.6132 47.5713 22.6838 47.3459 23.6418C47.1956 24.2429 46.9233 24.6655 46.5288 24.9097C46.1343 25.1351 45.6272 25.2478 45.0073 25.2478C44.1996 25.2478 43.4671 25.2854 42.8096 25.3605C42.171 25.4169 41.5793 25.5014 41.0346 25.6141C40.5086 25.7268 40.0109 25.8677 39.5413 26.0367C39.0717 26.2058 38.6021 26.403 38.1325 26.6284C38.0198 26.6848 37.9447 26.7693 37.9071 26.882C37.8883 26.9947 37.8977 27.1074 37.9353 27.2201C37.9916 27.314 38.0574 27.3891 38.1325 27.4455C38.2264 27.5018 38.3297 27.5112 38.4424 27.4737C38.8369 27.3046 39.2971 27.1356 39.823 26.9665C40.349 26.7975 40.8937 26.6472 41.4572 26.5157C42.0207 26.3842 42.5842 26.2809 43.1477 26.2058C43.7113 26.1306 44.2466 26.0931 44.7537 26.0931C46.0686 26.0931 47.1393 26.3936 47.9657 26.9947C48.0597 26.2058 48.2757 25.6704 48.6138 25.3887C48.9707 25.1069 49.4027 24.9661 49.9099 24.9661H50.7551Z" fill="black"/>
<path d="M83.2469 29.6714C83.2093 30.5166 83.1624 31.3619 83.106 32.2071C83.0497 33.0336 82.9745 33.8601 82.8806 34.6866C82.7679 35.8136 82.3829 36.6589 81.7254 37.2224C81.0868 37.7859 80.2697 38.0676 79.2742 38.0676C78.1284 38.0676 77.2174 37.7483 76.5411 37.1097C75.8649 36.471 75.5926 35.5131 75.7241 34.2358C76.0997 31.1928 76.2876 28.1687 76.2876 25.1633C76.2876 22.1579 76.1091 19.1995 75.7522 16.288C75.6771 15.593 75.7147 14.9919 75.8649 14.4848C76.0152 13.9588 76.2406 13.5268 76.5411 13.1887C76.8605 12.8506 77.2549 12.597 77.7245 12.428C78.1941 12.2589 78.7107 12.1744 79.2742 12.1744C80.2697 12.1744 81.0868 12.4562 81.7254 13.0197C82.3829 13.5832 82.7679 14.4472 82.8806 15.6118C82.9557 16.2692 83.0121 16.9361 83.0497 17.6123C83.106 18.2697 83.153 18.9459 83.1906 19.6409L84.0076 19.5564C84.6651 19.4437 85.1722 19.7912 85.5291 20.5989C85.886 21.4066 86.0644 22.7496 86.0644 24.6279C86.0644 26.5251 85.886 27.8775 85.5291 28.6852C85.1722 29.4929 84.6651 29.8592 84.0076 29.7841L83.2469 29.6714ZM59.9176 32.5452C59.7298 31.3619 59.6265 30.1879 59.6077 29.0233C59.6077 27.8399 59.711 26.7411 59.9176 25.7268C60.0491 25.1821 60.19 24.6843 60.3403 24.2335C60.5093 23.7639 60.7253 23.3694 60.9883 23.0501C61.2701 22.712 61.6176 22.449 62.0308 22.2612C62.444 22.0734 62.9606 21.9795 63.5804 21.9795C64.4821 21.9795 65.3649 21.9607 66.2289 21.9231C67.093 21.8668 67.9758 21.7634 68.8774 21.6132C68.9901 21.5944 69.0653 21.538 69.1028 21.4441C69.1592 21.3502 69.1874 21.2469 69.1874 21.1342C69.1874 21.0215 69.1592 20.9276 69.1028 20.8524C69.0653 20.7585 68.9901 20.721 68.8774 20.7397C68.0134 20.8712 67.1775 20.9651 66.3698 21.0215C65.5809 21.0778 64.7638 21.106 63.9185 21.106C62.3971 21.106 61.3452 20.8149 60.7629 20.2326C60.1994 19.6503 59.9176 18.7862 59.9176 17.6404C59.9176 15.3676 61.317 13.9495 64.1158 13.3859C64.6981 13.2732 65.2334 13.1981 65.7218 13.1605C66.2101 13.1042 66.6797 13.076 67.1305 13.076C67.5814 13.0572 68.0322 13.0666 68.483 13.1042C68.9338 13.123 69.4034 13.1699 69.8917 13.2451C70.4552 13.339 70.9906 13.4611 71.4977 13.6113C72.0049 13.7616 72.4557 13.9776 72.8502 14.2594C73.2634 14.5224 73.6109 14.8792 73.8927 15.3301C74.1932 15.7621 74.4092 16.2974 74.5407 16.9361C74.7473 18.0631 74.8506 19.2277 74.8506 20.4298C74.8694 21.6132 74.7661 22.6838 74.5407 23.6418C74.3904 24.2429 74.1087 24.6655 73.6954 24.9097C73.301 25.1351 72.7938 25.2478 72.174 25.2478C70.5586 25.2666 69.1028 25.3981 67.8068 25.6423C66.5107 25.8677 65.3931 26.1964 64.4539 26.6284C64.3412 26.6848 64.266 26.7693 64.2285 26.882C64.2097 26.9947 64.2191 27.1074 64.2567 27.2201C64.2942 27.314 64.36 27.3891 64.4539 27.4455C64.5478 27.5018 64.6511 27.5112 64.7638 27.4737C65.5715 27.1168 66.4731 26.7975 67.4687 26.5157C68.483 26.2339 69.4973 26.0931 70.5116 26.0931C72.0519 26.0931 73.1977 26.4875 73.949 27.2764C74.7191 28.0653 75.1699 29.2018 75.3014 30.6857C75.3953 31.9254 75.2451 32.9585 74.8506 33.785C74.4562 34.5927 73.902 35.2313 73.1883 35.7009C72.4933 36.1705 71.6668 36.4992 70.7088 36.687C69.7696 36.8749 68.7929 36.9688 67.7786 36.9688C65.3179 36.9688 63.449 36.5837 62.1717 35.8136C60.8944 35.0435 60.143 33.954 59.9176 32.5452Z" fill="black"/>
<path d="M90.1836 19.1901H89.9863C88.9157 19.1337 88.1268 18.8895 87.6196 18.4575C87.1312 18.0255 86.887 17.4996 86.887 16.8797C86.887 16.2598 87.1312 15.7245 87.6196 15.2737C88.1268 14.8229 88.9157 14.5787 89.9863 14.5411C90.099 14.5411 90.2117 14.5411 90.3244 14.5411C90.4371 14.5224 90.5498 14.513 90.6625 14.513C90.5123 14.3251 90.3996 14.1279 90.3244 13.9213C90.2681 13.7147 90.2399 13.5268 90.2399 13.3578C90.2399 12.8506 90.5968 12.4186 91.3106 12.0617C92.0244 11.7048 92.9635 11.5264 94.1281 11.5264C95.2739 11.5264 96.1943 11.7048 96.8893 12.0617C97.6031 12.4186 97.96 12.8506 97.96 13.3578C97.96 13.5268 97.9318 13.7147 97.8755 13.9213C97.8191 14.1091 97.7158 14.297 97.5655 14.4848C97.7721 14.5036 97.9788 14.513 98.1854 14.513C98.4108 14.513 98.6362 14.5224 98.8616 14.5411C99.9135 14.5787 100.693 14.8229 101.2 15.2737C101.707 15.7245 101.961 16.2598 101.961 16.8797C101.961 17.4996 101.707 18.0255 101.2 18.4575C100.693 18.8895 99.9135 19.1337 98.8616 19.1901H98.5235C98.7865 19.3967 99.0776 19.5939 99.3969 19.7818C99.735 19.9696 100.092 20.1668 100.468 20.3735C100.731 20.5237 100.975 20.7022 101.2 20.9088C101.426 21.1154 101.613 21.3784 101.764 21.6977C101.914 22.017 102.017 22.4115 102.074 22.8811C102.149 23.3319 102.168 23.8766 102.13 24.5152C102.074 25.229 101.97 25.8113 101.82 26.2621C101.689 26.6941 101.501 27.0323 101.257 27.2764C101.012 27.5018 100.702 27.6615 100.327 27.7554C99.9698 27.8306 99.5472 27.8681 99.0588 27.8681C98.4202 27.8681 97.8848 27.8306 97.4528 27.7554C97.0208 27.6803 96.6639 27.5206 96.3822 27.2764C96.1192 27.0323 95.9314 26.6941 95.8186 26.2621C95.7059 25.8301 95.6496 25.2478 95.6496 24.5152C95.6496 23.67 95.5557 22.9656 95.3678 22.4021C95.1988 21.8198 94.8137 21.2939 94.2127 20.8243C94.0812 20.7303 93.9591 20.6928 93.8464 20.7116C93.7524 20.7116 93.6773 20.7491 93.621 20.8243C93.5646 20.8994 93.5458 20.9933 93.5646 21.106C93.6022 21.2187 93.6867 21.3126 93.8182 21.3878C94.2314 21.6507 94.4944 22.064 94.6071 22.6275C94.7386 23.191 94.8043 23.8954 94.8043 24.7406C94.8043 25.3981 94.7292 25.924 94.5789 26.3185C94.4474 26.7129 94.222 27.0229 93.9027 27.2483C93.5834 27.4549 93.1608 27.5958 92.6348 27.6709C92.1089 27.746 91.4609 27.7836 90.6907 27.7836C89.3759 27.7836 88.3334 27.53 87.5632 27.0229C86.8119 26.5157 86.4081 25.6423 86.3517 24.4025C86.2953 23.2755 86.4174 22.4209 86.718 21.8386C87.0373 21.2375 87.5914 20.7491 88.3803 20.3735C88.7748 20.1856 89.1223 20.0072 89.4228 19.8381C89.7234 19.6503 89.9769 19.4343 90.1836 19.1901ZM109.822 24.5434C109.784 24.75 109.756 24.9379 109.737 25.1069C109.737 25.276 109.719 25.4544 109.681 25.6423C109.549 26.5814 109.164 27.2764 108.526 27.7272C107.887 28.1781 107.07 28.4035 106.075 28.4035C105.511 28.4035 104.994 28.3377 104.525 28.2062C104.074 28.0747 103.689 27.8869 103.37 27.6427C103.069 27.3797 102.844 27.0604 102.693 26.6848C102.562 26.2903 102.534 25.8301 102.609 25.3042C102.816 23.7263 102.919 22.064 102.919 20.3171C102.919 18.5514 102.825 16.9361 102.637 15.4709C102.468 14.3063 102.712 13.4611 103.37 12.9351C104.027 12.4092 104.929 12.1462 106.075 12.1462C107.07 12.1462 107.887 12.3716 108.526 12.8224C109.164 13.2545 109.549 13.9495 109.681 14.9074C109.719 15.114 109.747 15.3301 109.765 15.5555C109.784 15.7809 109.812 16.0063 109.85 16.2317L110.723 16.1471C111.381 16.072 111.888 16.3725 112.245 17.0488C112.602 17.7062 112.78 18.8238 112.78 20.4016C112.78 21.9419 112.602 23.0501 112.245 23.7263C111.888 24.4025 111.381 24.7031 110.723 24.6279L109.822 24.5434ZM87.4224 35.8418C87.3285 35.4849 87.2533 35.081 87.197 34.6302C87.1594 34.1982 87.1312 33.7662 87.1124 33.3342C87.1124 32.8834 87.1312 32.4513 87.1688 32.0381C87.2064 31.6061 87.2627 31.221 87.3378 30.8829C87.4693 30.3006 87.7229 29.8874 88.0986 29.6432C88.4743 29.3802 89.0378 29.2018 89.7891 29.1078C91.1603 28.92 92.5879 28.7791 94.0718 28.6852C95.5557 28.5913 97.049 28.5443 98.5517 28.5443C100.073 28.5443 101.576 28.5913 103.06 28.6852C104.562 28.7791 106.009 28.92 107.399 29.1078C108.131 29.2018 108.676 29.3802 109.033 29.6432C109.409 29.8874 109.672 30.3006 109.822 30.8829C109.897 31.221 109.953 31.6061 109.991 32.0381C110.028 32.4513 110.038 32.8834 110.019 33.3342C110.019 33.7662 109.991 34.1982 109.935 34.6302C109.897 35.081 109.822 35.4849 109.709 35.8418C109.559 36.4428 109.315 36.8655 108.977 37.1097C108.657 37.3726 108.131 37.5511 107.399 37.645C105.99 37.7953 104.544 37.8986 103.06 37.9549C101.576 38.0301 100.083 38.0676 98.5798 38.0676C97.0771 38.0676 95.5839 38.0301 94.0999 37.9549C92.616 37.8986 91.1791 37.7953 89.7891 37.645C89.0378 37.5699 88.493 37.4008 88.1549 37.1378C87.8168 36.8749 87.5726 36.4428 87.4224 35.8418ZM96.8048 32.9961C96.7297 32.9397 96.6263 32.9303 96.4949 32.9679C96.3634 33.0054 96.2601 33.09 96.1849 33.2215C96.0535 33.4844 96.1755 33.7286 96.5512 33.954C97.1898 34.2921 97.8661 34.4612 98.5798 34.4612C99.2936 34.4424 99.9698 34.2733 100.608 33.954C100.721 33.8601 100.806 33.7662 100.862 33.6723C100.937 33.5783 100.947 33.4563 100.89 33.306C100.853 33.1933 100.768 33.0994 100.637 33.0242C100.524 32.9491 100.411 32.9491 100.299 33.0242C99.7726 33.306 99.1809 33.4469 98.5235 33.4469C97.8848 33.4281 97.3119 33.2778 96.8048 32.9961Z" fill="black"/>
<path d="M133.072 27.6427C133.035 28.8261 132.997 30.0001 132.959 31.1646C132.922 32.3104 132.856 33.4469 132.762 34.5739C132.668 35.7009 132.368 36.5368 131.861 37.0815C131.372 37.6262 130.734 37.8986 129.945 37.8986C129.081 37.8986 128.395 37.5793 127.888 36.9406C127.381 36.302 127.174 35.3628 127.268 34.1231C127.531 31.1365 127.672 28.1687 127.691 25.2196C127.709 22.2706 127.587 19.3685 127.324 16.5134C127.212 15.1234 127.399 14.1091 127.888 13.4705C128.395 12.813 129.081 12.4843 129.945 12.4843C130.734 12.4843 131.372 12.7567 131.861 13.3014C132.368 13.8461 132.668 14.682 132.762 15.809C132.875 17.2178 132.959 18.6548 133.016 20.1199L133.946 20.2044C133.889 18.8895 133.805 17.5841 133.692 16.288C133.56 14.8792 133.739 13.8461 134.227 13.1887C134.716 12.5125 135.411 12.1744 136.312 12.1744C137.082 12.1744 137.712 12.4562 138.2 13.0197C138.707 13.5832 139.008 14.4472 139.102 15.6118C139.365 18.6735 139.496 21.848 139.496 25.1351C139.496 28.4222 139.365 31.6061 139.102 34.6866C139.008 35.8136 138.707 36.6589 138.2 37.2224C137.712 37.7859 137.082 38.0676 136.312 38.0676C135.411 38.0676 134.706 37.7483 134.199 37.1097C133.711 36.471 133.523 35.5131 133.636 34.2358C133.73 33.1088 133.805 32.0005 133.861 30.9111C133.936 29.8028 133.992 28.6852 134.03 27.5582L133.072 27.6427ZM116.054 22.1203C116.336 22.0264 116.627 21.8949 116.928 21.7259C117.247 21.538 117.519 21.322 117.745 21.0778C117.82 21.0027 117.848 20.9182 117.829 20.8243C117.81 20.7303 117.773 20.6552 117.716 20.5989C117.66 20.5425 117.594 20.5049 117.519 20.4862C117.444 20.4674 117.369 20.4955 117.294 20.5707C116.505 21.3784 115.66 21.6883 114.758 21.5005C114.382 21.4253 114.063 21.2469 113.8 20.9651C113.537 20.6646 113.321 20.3171 113.152 19.9226C112.983 19.5094 112.861 19.068 112.786 18.5984C112.711 18.1288 112.673 17.6686 112.673 17.2178C112.692 15.6963 113.058 14.5317 113.772 13.7241C114.486 12.8976 115.406 12.4843 116.533 12.4843C117.435 12.4843 118.111 12.7379 118.562 13.2451C119.031 13.7522 119.398 14.4003 119.661 15.1892C119.679 15.2455 119.726 15.2831 119.801 15.3019C119.877 15.3207 119.942 15.3207 119.999 15.3019C120.074 15.2831 120.14 15.2549 120.196 15.2173C120.252 15.161 120.271 15.0953 120.252 15.0201C120.064 14.3251 119.783 13.7616 119.407 13.3296C119.764 12.9915 120.262 12.7661 120.9 12.6534C121.539 12.5407 122.131 12.4843 122.675 12.4843C123.276 12.4843 123.802 12.5876 124.253 12.7943C124.704 13.0009 125.08 13.292 125.38 13.6677C125.7 14.0434 125.953 14.4848 126.141 14.9919C126.329 15.4991 126.47 16.0626 126.564 16.6825C126.639 17.3023 126.695 18.0912 126.733 19.0492C126.789 19.9884 126.817 21.0121 126.817 22.1203C126.817 23.2098 126.808 24.3368 126.789 25.5014C126.77 26.666 126.733 27.7836 126.676 28.8543C126.639 29.9061 126.582 30.8735 126.507 31.7563C126.451 32.6204 126.385 33.306 126.31 33.8131C126.235 34.3391 126.15 34.7993 126.056 35.1937C125.962 35.607 125.831 35.9451 125.662 36.2081C125.493 36.4898 125.277 36.6964 125.014 36.8279C124.751 36.9782 124.422 37.0533 124.028 37.0533C123.69 37.0533 123.408 37.0064 123.183 36.9124C122.976 36.8185 122.807 36.6589 122.675 36.4335C122.544 36.2268 122.431 35.9545 122.337 35.6164C122.262 35.2783 122.187 34.865 122.112 34.3766C122.055 34.0573 122.018 33.569 121.999 32.9115C121.98 32.2353 121.962 31.484 121.943 30.6575C121.924 29.8122 121.915 28.9294 121.915 28.009C121.933 27.0886 121.943 26.2339 121.943 25.445C121.962 24.6373 121.98 23.933 121.999 23.3319C122.037 22.7308 122.074 22.327 122.112 22.1203C122.356 22.0076 122.61 21.8668 122.873 21.6977C123.136 21.5099 123.352 21.2939 123.521 21.0497C123.596 20.9557 123.624 20.8712 123.605 20.7961C123.586 20.7022 123.539 20.627 123.464 20.5707C123.408 20.5143 123.333 20.4862 123.239 20.4862C123.164 20.4674 123.098 20.4955 123.042 20.5707C122.666 20.9839 122.318 21.2563 121.999 21.3878C121.68 21.5193 121.351 21.5756 121.013 21.5568C121.051 22.6275 121.06 23.7639 121.041 24.9661C121.022 26.1494 120.985 27.3046 120.928 28.4316C120.872 29.5399 120.797 30.573 120.703 31.5309C120.628 32.4701 120.543 33.2308 120.449 33.8131C120.299 34.8838 120.036 35.6915 119.661 36.2362C119.304 36.781 118.797 37.0533 118.139 37.0533C117.482 37.0533 116.965 36.8467 116.589 36.4335C116.233 36.039 115.979 35.3534 115.829 34.3766C115.772 34.0573 115.735 33.569 115.716 32.9115C115.716 32.2353 115.716 31.484 115.716 30.6575C115.735 29.8122 115.754 28.9294 115.772 28.009C115.791 27.0886 115.819 26.2339 115.857 25.445C115.894 24.6373 115.932 23.933 115.97 23.3319C116.007 22.7308 116.035 22.327 116.054 22.1203Z" fill="black"/>
<path d="M47.0672 46.4101C46.1335 46.4101 45.442 45.7301 45.442 44.8003C45.442 43.8705 46.1297 43.1904 47.0633 43.1904C47.997 43.1904 48.6885 43.8705 48.6885 44.8003C48.6885 45.7301 48.0008 46.4101 47.0672 46.4101ZM47.0672 46.0413C47.7664 46.0413 48.2851 45.5226 48.2851 44.8003C48.2851 44.0741 47.7664 43.5593 47.0633 43.5593C46.3602 43.5593 45.8454 44.0741 45.8454 44.8003C45.8454 45.5226 46.3641 46.0413 47.0672 46.0413Z" fill="black"/>
<path d="M51.6402 43.2634H52.7314C53.5305 43.2634 53.9993 43.6899 53.9993 44.3315C53.9993 44.9732 53.5305 45.3996 52.7314 45.3996H52.0436V46.341H51.6402V43.2634ZM52.7006 45.0346C53.2577 45.0346 53.5958 44.7887 53.5958 44.3315C53.5958 43.8743 53.2577 43.6284 52.7006 43.6284H52.0436V45.0346H52.7006Z" fill="black"/>
<path d="M56.8673 43.2634H59.0534V43.6207H57.2707V44.589H58.9189V44.9463H57.2707V45.9836H59.088V46.341H56.8673V43.2634Z" fill="black"/>
<path d="M62.0268 43.2634H62.4033L64.2667 45.6609V43.2442H64.674V46.3217H64.2936L62.4302 43.9243V46.341H62.0268V43.2634Z" fill="black"/>
<path d="M72.3837 43.1904C73.0599 43.1904 73.5594 43.5746 73.5978 44.1125H73.1828C73.1406 43.786 72.8447 43.5362 72.3645 43.5362C71.8804 43.5362 71.6076 43.736 71.6076 44.0126C71.6076 44.3315 71.8919 44.4699 72.5489 44.6082C73.3058 44.7695 73.6093 45.0615 73.6093 45.5187C73.6093 46.072 73.0676 46.4101 72.3837 46.4101C71.6652 46.4101 71.1465 46.0182 71.1042 45.4227H71.5192C71.5615 45.7954 71.8957 46.0605 72.4106 46.0605C72.8716 46.0605 73.1982 45.8492 73.1982 45.5418C73.1982 45.1999 72.9177 45.0615 72.2492 44.9194C71.5538 44.7734 71.2003 44.5236 71.2003 44.0126C71.2003 43.5016 71.7036 43.1904 72.3837 43.1904Z" fill="black"/>
<path d="M76.5411 43.2634H78.7273V43.6207H76.9445V44.589H78.5928V44.9463H76.9445V45.9836H78.7618V46.341H76.5411V43.2634Z" fill="black"/>
<path d="M82.834 43.1904C83.5103 43.1904 84.0097 43.5746 84.0481 44.1125H83.6332C83.5909 43.786 83.2951 43.5362 82.8148 43.5362C82.3307 43.5362 82.0579 43.736 82.0579 44.0126C82.0579 44.3315 82.3423 44.4699 82.9993 44.6082C83.7561 44.7695 84.0597 45.0615 84.0597 45.5187C84.0597 46.072 83.5179 46.4101 82.834 46.4101C82.1156 46.4101 81.5969 46.0182 81.5546 45.4227H81.9696C82.0118 45.7954 82.3461 46.0605 82.8609 46.0605C83.322 46.0605 83.6486 45.8492 83.6486 45.5418C83.6486 45.1999 83.3681 45.0615 82.6996 44.9194C82.0042 44.7734 81.6507 44.5236 81.6507 44.0126C81.6507 43.5016 82.154 43.1904 82.834 43.1904Z" fill="black"/>
<path d="M89.2283 46.341L88.9209 45.5802H87.4417L87.1343 46.341H86.7117L87.9796 43.2634H88.4061L89.6701 46.341H89.2283ZM87.5839 45.2229H88.7788L88.1832 43.736L87.5839 45.2229Z" fill="black"/>
<path d="M92.4999 43.2634H92.8534L94.0406 45.3535L95.2278 43.2634H95.5813V46.341H95.1779V44.0703L94.1866 45.8223H93.8946L92.9034 44.0703V46.341H92.4999V43.2634Z" fill="black"/>
<path d="M98.6575 43.2634H100.844V43.6207H99.0609V44.589H100.709V44.9463H99.0609V45.9836H100.878V46.341H98.6575V43.2634Z" fill="black"/>
<defs>
<clipPath id="clip0_31637_8395">
<rect width="146" height="57" fill="white"/>
</clipPath>
</defs>
</svg>
