<svg width="456" height="180" viewBox="0 0 456 180" fill="none" xmlns="http://www.w3.org/2000/svg">
<g clip-path="url(#clip0_31634_2241)">
<path d="M202.559 130.257C257.972 162.46 313.149 170.685 325.8 148.629C338.451 126.572 303.786 82.5864 248.372 50.3831C192.959 18.18 137.782 9.95417 125.131 32.0108C112.48 54.0669 147.146 98.0535 202.559 130.257Z" stroke="#959595" stroke-width="0.5" stroke-miterlimit="10"/>
<path d="M193.07 122.928C238.315 168.47 289.497 190.79 307.388 172.781C325.279 154.772 303.105 103.254 257.86 57.7115C212.616 12.1694 161.434 -10.1509 143.543 7.85825C125.652 25.867 147.826 77.3859 193.07 122.928Z" stroke="#CACACA" stroke-width="0.5" stroke-miterlimit="10"/>
</g>
<path d="M65.0496 72.52C63.1723 74.456 60.6496 76.0107 57.4816 77.184C54.3136 78.2987 50.3243 78.856 45.5136 78.856C40.9376 78.856 37.0949 78.3573 33.9856 77.36C30.9349 76.304 28.4416 74.8667 26.5056 73.048C24.6283 71.2293 23.2789 69.1173 22.4576 66.712C21.6949 64.248 21.3136 61.6373 21.3136 58.88C21.3136 56.064 21.6656 53.3947 22.3696 50.872C23.1323 48.3493 24.4229 46.1787 26.2416 44.36C28.0603 42.4827 30.5243 41.016 33.6336 39.96C36.7429 38.8453 40.7029 38.288 45.5136 38.288C50.2656 38.288 54.1669 38.816 57.2176 39.872C60.3269 40.8693 62.8203 42.2773 64.6976 44.096H73.1456C73.7323 41.984 74.9349 40.4587 76.7536 39.52C78.6309 38.5227 80.9776 38.024 83.7936 38.024C86.9029 38.024 89.4549 38.728 91.4496 40.136C93.4443 41.4853 94.6469 43.656 95.0576 46.648C95.4683 49.112 95.7616 51.312 95.9376 53.248C96.1136 55.1253 96.2016 56.9733 96.2016 58.792C96.2016 60.552 96.1136 62.3707 95.9376 64.248C95.7616 66.1253 95.4683 68.296 95.0576 70.76C94.6469 73.752 93.4443 75.952 91.4496 77.36C89.4549 78.7093 86.9029 79.384 83.7936 79.384C80.8016 79.384 78.3083 78.8267 76.3136 77.712C74.3776 76.5973 73.2336 74.8667 72.8816 72.52H65.0496ZM39.0016 56.416C40.2336 58.1173 41.8763 59.584 43.9296 60.816C46.0416 61.9893 48.2123 62.84 50.4416 63.368C50.9696 63.4853 51.4096 63.4267 51.7616 63.192C52.1136 62.9573 52.3483 62.664 52.4656 62.312C52.5829 61.96 52.5829 61.608 52.4656 61.256C52.4069 60.8453 52.2016 60.5813 51.8496 60.464C49.7376 59.8187 47.7723 58.968 45.9536 57.912C44.1936 56.7973 42.4629 55.4187 40.7616 53.776C40.4683 53.5413 40.1456 53.4827 39.7936 53.6C39.5003 53.6587 39.2363 53.8347 39.0016 54.128C38.7669 54.4213 38.6203 54.7733 38.5616 55.184C38.5029 55.5947 38.6496 56.0053 39.0016 56.416ZM73.9376 60.464C73.9963 59.7013 73.9963 58.968 73.9376 58.264C73.9376 57.5013 73.9083 56.7387 73.8496 55.976H69.8016C69.8603 56.4453 69.8896 56.944 69.8896 57.472C69.8896 57.9413 69.8896 58.4107 69.8896 58.88V60.464H73.9376ZM25.0976 111.24C24.6283 110.36 24.2763 109.333 24.0416 108.16C23.8656 107.045 23.7776 105.872 23.7776 104.64C23.7776 103.408 23.8949 102.205 24.1296 101.032C24.4229 99.8 24.8336 98.6853 25.3616 97.688C26.0656 96.1627 27.3269 95.048 29.1456 94.344C31.0229 93.64 33.3696 93.288 36.1856 93.288C38.3563 93.288 40.7323 93.288 43.3136 93.288C45.9536 93.2293 48.5936 93.2 51.2336 93.2C53.9323 93.1413 56.5429 93.0827 59.0656 93.024C61.5883 92.9067 63.8176 92.76 65.7536 92.584C66.2229 92.5253 66.5456 92.3787 66.7216 92.144C66.9563 91.9093 67.0443 91.6747 66.9856 91.44C66.9856 91.1467 66.8389 90.912 66.5456 90.736C66.3109 90.5013 65.9883 90.384 65.5776 90.384C61.5883 90.56 57.6576 90.7067 53.7856 90.824C49.9136 90.8827 46.0416 90.9707 42.1696 91.088C38.7669 91.1467 35.8923 91.176 33.5456 91.176C31.1989 91.176 29.2923 91.0293 27.8256 90.736C26.4176 90.4427 25.3909 89.9733 24.7456 89.328C24.1589 88.624 23.8656 87.6267 23.8656 86.336C23.8656 85.0453 24.2176 84.048 24.9216 83.344C25.6843 82.64 26.8283 82.1413 28.3536 81.848C29.9376 81.496 31.9616 81.2613 34.4256 81.144C36.8896 81.0267 39.8523 80.88 43.3136 80.704C45.6603 80.5867 48.2709 80.4987 51.1456 80.44C54.0203 80.3227 56.9829 80.264 60.0336 80.264C63.1429 80.264 66.2523 80.2933 69.3616 80.352C72.5296 80.4107 75.5216 80.528 78.3376 80.704C82.3856 80.88 85.7883 81.2907 88.5456 81.936C91.3616 82.5813 93.1216 83.8133 93.8256 85.632C94.4709 87.3333 94.7643 88.976 94.7056 90.56C94.6469 92.144 94.3536 93.5227 93.8256 94.696C93.2976 96.0453 92.2709 97.1013 90.7456 97.864C89.2789 98.568 87.4016 98.8907 85.1136 98.832C77.4869 98.7147 70.3589 98.8027 63.7296 99.096C57.1589 99.3307 51.1163 99.8 45.6016 100.504C45.0736 100.621 44.6923 100.797 44.4576 101.032C44.2816 101.267 44.2229 101.531 44.2816 101.824C44.3403 102.059 44.5163 102.264 44.8096 102.44C45.1616 102.616 45.6016 102.675 46.1296 102.616C50.0016 102.088 54.1669 101.677 58.6256 101.384C63.0843 101.032 67.6896 100.856 72.4416 100.856C76.0789 100.856 79.3349 100.915 82.2096 101.032C85.0843 101.149 87.5189 101.472 89.5136 102C91.5669 102.469 93.1216 103.173 94.1776 104.112C95.2923 105.051 95.8496 106.341 95.8496 107.984C95.9083 109.861 95.4389 111.357 94.4416 112.472C93.5029 113.645 92.1829 114.555 90.4816 115.2C88.7803 115.845 86.7269 116.315 84.3216 116.608C81.9749 116.96 79.4229 117.253 76.6656 117.488C71.3269 117.957 66.1936 118.221 61.2656 118.28C56.3963 118.339 51.2043 118.221 45.6896 117.928C39.4709 117.635 34.7189 116.931 31.4336 115.816C28.2069 114.701 26.0949 113.176 25.0976 111.24Z" fill="black"/>
<path d="M158.523 77.976C158.523 77.3307 158.493 76.7147 158.435 76.128C158.435 75.4827 158.435 74.8373 158.435 74.192H156.411C155.413 74.192 154.533 74.0453 153.771 73.752C153.008 73.4587 152.333 72.96 151.747 72.256C151.219 71.4933 150.808 70.496 150.515 69.264C150.221 67.9733 150.075 66.36 150.075 64.424C150.075 60.6107 150.632 57.9413 151.747 56.416C152.92 54.832 154.475 54.0693 156.411 54.128H157.291C157.232 53.6 157.173 53.072 157.115 52.544C157.056 51.9573 156.997 51.4 156.939 50.872C156.469 46.472 157.291 43.2453 159.403 41.192C161.515 39.08 164.36 38.024 167.939 38.024C171.048 38.024 173.6 38.904 175.595 40.664C177.648 42.424 178.851 45.1227 179.203 48.76C180.2 58.3227 180.699 68.2373 180.699 78.504C180.699 88.7707 180.2 98.7147 179.203 108.336C178.851 111.856 177.648 114.496 175.595 116.256C173.6 118.016 171.048 118.896 167.939 118.896C166.179 118.896 164.565 118.632 163.099 118.104C161.632 117.635 160.4 116.901 159.403 115.904C158.405 114.907 157.672 113.645 157.203 112.12C156.733 110.653 156.616 108.923 156.851 106.928C157.027 105.403 157.173 103.936 157.291 102.528C157.467 101.061 157.613 99.5653 157.731 98.04L155.883 98.128H155.619C155.56 101.589 154.827 104.435 153.419 106.664C152.011 108.893 150.163 110.653 147.875 111.944C145.587 113.235 142.976 114.144 140.043 114.672C137.168 115.2 134.235 115.464 131.243 115.464C123.557 115.464 117.427 114.261 112.851 111.856C108.333 109.451 105.752 106.048 105.107 101.648C104.52 97.952 104.197 94.2853 104.139 90.648C104.08 86.952 104.403 83.52 105.107 80.352C105.459 78.6507 105.869 77.096 106.339 75.688C106.867 74.2213 107.541 72.9893 108.363 71.992C109.243 70.936 110.328 70.1147 111.619 69.528C112.909 68.9413 114.523 68.648 116.459 68.648C117.867 68.648 119.099 68.648 120.155 68.648C121.269 68.5893 122.325 68.5307 123.323 68.472C124.32 68.3547 125.347 68.2373 126.403 68.12C127.517 67.944 128.779 67.7387 130.187 67.504C130.539 67.4453 130.803 67.2693 130.979 66.976C131.155 66.6827 131.243 66.36 131.243 66.008C131.243 65.656 131.155 65.3627 130.979 65.128C130.803 64.8347 130.539 64.7173 130.187 64.776C128.837 64.952 127.664 65.128 126.667 65.304C125.728 65.4213 124.789 65.5387 123.851 65.656C122.912 65.7147 121.944 65.7733 120.947 65.832C120.008 65.8907 118.893 65.92 117.603 65.92C115.197 65.92 113.203 65.6853 111.619 65.216C110.035 64.7467 108.744 64.072 107.747 63.192C106.808 62.2533 106.133 61.1093 105.723 59.76C105.312 58.4107 105.107 56.856 105.107 55.096C105.107 47.9973 109.448 43.568 118.131 41.808C119.891 41.456 121.387 41.2213 122.619 41.104C123.909 40.928 125.083 40.84 126.139 40.84C127.253 40.7813 128.368 40.8107 129.483 40.928C130.597 40.9867 131.917 41.1333 133.443 41.368C135.203 41.6027 136.875 41.9547 138.459 42.424C140.043 42.8933 141.451 43.568 142.683 44.448C143.973 45.328 145.059 46.472 145.939 47.88C146.877 49.2293 147.523 50.9013 147.875 52.896C148.579 56.416 148.931 60.0533 148.931 63.808C148.931 67.504 148.579 70.848 147.875 73.84C147.405 75.7173 146.555 77.0373 145.323 77.8C144.091 78.504 142.507 78.856 140.571 78.856C138.048 78.856 135.76 78.9733 133.707 79.208C131.712 79.384 129.864 79.648 128.163 80C126.52 80.352 124.965 80.792 123.499 81.32C122.032 81.848 120.565 82.464 119.099 83.168C118.747 83.344 118.512 83.608 118.395 83.96C118.336 84.312 118.365 84.664 118.483 85.016C118.659 85.3093 118.864 85.544 119.099 85.72C119.392 85.896 119.715 85.9253 120.067 85.808C121.299 85.28 122.736 84.752 124.379 84.224C126.021 83.696 127.723 83.2267 129.483 82.816C131.243 82.4053 133.003 82.0827 134.763 81.848C136.523 81.6133 138.195 81.496 139.779 81.496C143.885 81.496 147.229 82.4347 149.811 84.312C150.104 81.848 150.779 80.176 151.835 79.296C152.949 78.416 154.299 77.976 155.883 77.976H158.523Z" fill="black"/>
<path d="M260.004 92.672C259.887 95.312 259.74 97.952 259.564 100.592C259.388 103.173 259.153 105.755 258.86 108.336C258.508 111.856 257.305 114.496 255.252 116.256C253.257 118.016 250.705 118.896 247.596 118.896C244.017 118.896 241.172 117.899 239.06 115.904C236.948 113.909 236.097 110.917 236.508 106.928C237.681 97.424 238.268 87.9787 238.268 78.592C238.268 69.2053 237.711 59.9653 236.596 50.872C236.361 48.7013 236.479 46.824 236.948 45.24C237.417 43.5973 238.121 42.248 239.06 41.192C240.057 40.136 241.289 39.344 242.756 38.816C244.223 38.288 245.836 38.024 247.596 38.024C250.705 38.024 253.257 38.904 255.252 40.664C257.305 42.424 258.508 45.1227 258.86 48.76C259.095 50.8133 259.271 52.896 259.388 55.008C259.564 57.0613 259.711 59.1733 259.828 61.344L262.38 61.08C264.433 60.728 266.017 61.8133 267.132 64.336C268.247 66.8587 268.804 71.0533 268.804 76.92C268.804 82.8453 268.247 87.0693 267.132 89.592C266.017 92.1147 264.433 93.2587 262.38 93.024L260.004 92.672ZM187.14 101.648C186.553 97.952 186.231 94.2853 186.172 90.648C186.172 86.952 186.495 83.52 187.14 80.352C187.551 78.6507 187.991 77.096 188.46 75.688C188.988 74.2213 189.663 72.9893 190.484 71.992C191.364 70.936 192.449 70.1147 193.74 69.528C195.031 68.9413 196.644 68.648 198.58 68.648C201.396 68.648 204.153 68.5893 206.852 68.472C209.551 68.296 212.308 67.9733 215.124 67.504C215.476 67.4453 215.711 67.2693 215.828 66.976C216.004 66.6827 216.092 66.36 216.092 66.008C216.092 65.656 216.004 65.3627 215.828 65.128C215.711 64.8347 215.476 64.7173 215.124 64.776C212.425 65.1867 209.815 65.48 207.292 65.656C204.828 65.832 202.276 65.92 199.636 65.92C194.884 65.92 191.599 65.0107 189.78 63.192C188.02 61.3733 187.14 58.6747 187.14 55.096C187.14 47.9973 191.511 43.568 200.252 41.808C202.071 41.456 203.743 41.2213 205.268 41.104C206.793 40.928 208.26 40.84 209.668 40.84C211.076 40.7813 212.484 40.8107 213.892 40.928C215.3 40.9867 216.767 41.1333 218.292 41.368C220.052 41.6613 221.724 42.0427 223.308 42.512C224.892 42.9813 226.3 43.656 227.532 44.536C228.823 45.3573 229.908 46.472 230.788 47.88C231.727 49.2293 232.401 50.9013 232.812 52.896C233.457 56.416 233.78 60.0533 233.78 63.808C233.839 67.504 233.516 70.848 232.812 73.84C232.343 75.7173 231.463 77.0373 230.172 77.8C228.94 78.504 227.356 78.856 225.42 78.856C220.375 78.9147 215.828 79.3253 211.78 80.088C207.732 80.792 204.241 81.8187 201.308 83.168C200.956 83.344 200.721 83.608 200.604 83.96C200.545 84.312 200.575 84.664 200.692 85.016C200.809 85.3093 201.015 85.544 201.308 85.72C201.601 85.896 201.924 85.9253 202.276 85.808C204.799 84.6933 207.615 83.696 210.724 82.816C213.892 81.936 217.06 81.496 220.228 81.496C225.039 81.496 228.617 82.728 230.964 85.192C233.369 87.656 234.777 91.2053 235.188 95.84C235.481 99.712 235.012 102.939 233.78 105.52C232.548 108.043 230.817 110.037 228.588 111.504C226.417 112.971 223.836 113.997 220.844 114.584C217.911 115.171 214.86 115.464 211.692 115.464C204.007 115.464 198.169 114.261 194.18 111.856C190.191 109.451 187.844 106.048 187.14 101.648Z" fill="black"/>
<path d="M281.669 59.936H281.053C277.709 59.76 275.245 58.9973 273.661 57.648C272.136 56.2987 271.373 54.656 271.373 52.72C271.373 50.784 272.136 49.112 273.661 47.704C275.245 46.296 277.709 45.5333 281.053 45.416C281.405 45.416 281.757 45.416 282.109 45.416C282.461 45.3573 282.813 45.328 283.165 45.328C282.696 44.7413 282.344 44.1253 282.109 43.48C281.933 42.8347 281.845 42.248 281.845 41.72C281.845 40.136 282.96 38.7867 285.189 37.672C287.418 36.5573 290.352 36 293.989 36C297.568 36 300.443 36.5573 302.613 37.672C304.842 38.7867 305.957 40.136 305.957 41.72C305.957 42.248 305.869 42.8347 305.693 43.48C305.517 44.0667 305.194 44.6533 304.725 45.24C305.37 45.2987 306.016 45.328 306.661 45.328C307.365 45.328 308.069 45.3573 308.773 45.416C312.059 45.5333 314.493 46.296 316.077 47.704C317.661 49.112 318.453 50.784 318.453 52.72C318.453 54.656 317.661 56.2987 316.077 57.648C314.493 58.9973 312.059 59.76 308.773 59.936H307.717C308.538 60.5813 309.448 61.1973 310.445 61.784C311.501 62.3707 312.616 62.9867 313.789 63.632C314.61 64.1013 315.373 64.6587 316.077 65.304C316.781 65.9493 317.368 66.7707 317.837 67.768C318.306 68.7653 318.629 69.9973 318.805 71.464C319.04 72.872 319.099 74.5733 318.981 76.568C318.805 78.7973 318.482 80.616 318.013 82.024C317.602 83.3733 317.016 84.4293 316.253 85.192C315.491 85.896 314.522 86.3947 313.349 86.688C312.234 86.9227 310.914 87.04 309.389 87.04C307.395 87.04 305.723 86.9227 304.373 86.688C303.024 86.4533 301.909 85.9547 301.029 85.192C300.208 84.4293 299.621 83.3733 299.269 82.024C298.917 80.6747 298.741 78.856 298.741 76.568C298.741 73.928 298.448 71.728 297.861 69.968C297.333 68.1493 296.13 66.5067 294.253 65.04C293.842 64.7467 293.461 64.6293 293.109 64.688C292.816 64.688 292.581 64.8053 292.405 65.04C292.229 65.2747 292.171 65.568 292.229 65.92C292.346 66.272 292.61 66.5653 293.021 66.8C294.312 67.6213 295.133 68.912 295.485 70.672C295.896 72.432 296.101 74.632 296.101 77.272C296.101 79.3253 295.866 80.968 295.397 82.2C294.986 83.432 294.283 84.4 293.285 85.104C292.288 85.7493 290.968 86.1893 289.325 86.424C287.682 86.6587 285.659 86.776 283.253 86.776C279.147 86.776 275.891 85.984 273.485 84.4C271.139 82.816 269.877 80.088 269.701 76.216C269.525 72.696 269.906 70.0267 270.845 68.208C271.842 66.3307 273.573 64.8053 276.037 63.632C277.269 63.0453 278.354 62.488 279.293 61.96C280.232 61.3733 281.024 60.6987 281.669 59.936ZM343.005 76.656C342.888 77.3013 342.8 77.888 342.741 78.416C342.741 78.944 342.682 79.5013 342.565 80.088C342.154 83.0213 340.952 85.192 338.957 86.6C336.962 88.008 334.411 88.712 331.301 88.712C329.541 88.712 327.928 88.5067 326.461 88.096C325.053 87.6853 323.85 87.0987 322.853 86.336C321.914 85.5147 321.21 84.5173 320.741 83.344C320.33 82.112 320.242 80.6747 320.477 79.032C321.122 74.104 321.445 68.912 321.445 63.456C321.445 57.9413 321.152 52.896 320.565 48.32C320.037 44.6827 320.8 42.0427 322.853 40.4C324.906 38.7573 327.723 37.936 331.301 37.936C334.411 37.936 336.962 38.64 338.957 40.048C340.952 41.3973 342.154 43.568 342.565 46.56C342.682 47.2053 342.771 47.88 342.829 48.584C342.888 49.288 342.976 49.992 343.093 50.696L345.821 50.432C347.875 50.1973 349.458 51.136 350.573 53.248C351.688 55.3013 352.245 58.792 352.245 63.72C352.245 68.5307 351.688 71.992 350.573 74.104C349.458 76.216 347.875 77.1547 345.821 76.92L343.005 76.656ZM273.045 111.944C272.752 110.829 272.517 109.568 272.341 108.16C272.224 106.811 272.136 105.461 272.077 104.112C272.077 102.704 272.136 101.355 272.253 100.064C272.37 98.7147 272.546 97.512 272.781 96.456C273.192 94.6373 273.984 93.3467 275.157 92.584C276.331 91.7627 278.09 91.2053 280.437 90.912C284.72 90.3253 289.178 89.8853 293.813 89.592C298.448 89.2987 303.112 89.152 307.805 89.152C312.557 89.152 317.25 89.2987 321.885 89.592C326.578 89.8853 331.096 90.3253 335.437 90.912C337.725 91.2053 339.427 91.7627 340.541 92.584C341.715 93.3467 342.536 94.6373 343.005 96.456C343.24 97.512 343.416 98.7147 343.533 100.064C343.651 101.355 343.68 102.704 343.621 104.112C343.621 105.461 343.533 106.811 343.357 108.16C343.24 109.568 343.005 110.829 342.653 111.944C342.184 113.821 341.421 115.141 340.365 115.904C339.368 116.725 337.725 117.283 335.437 117.576C331.037 118.045 326.52 118.368 321.885 118.544C317.25 118.779 312.586 118.896 307.893 118.896C303.2 118.896 298.536 118.779 293.901 118.544C289.266 118.368 284.779 118.045 280.437 117.576C278.09 117.341 276.389 116.813 275.333 115.992C274.277 115.171 273.514 113.821 273.045 111.944ZM302.349 103.056C302.114 102.88 301.792 102.851 301.381 102.968C300.97 103.085 300.648 103.349 300.413 103.76C300.003 104.581 300.384 105.344 301.557 106.048C303.552 107.104 305.664 107.632 307.893 107.632C310.122 107.573 312.234 107.045 314.229 106.048C314.581 105.755 314.845 105.461 315.021 105.168C315.256 104.875 315.285 104.493 315.109 104.024C314.992 103.672 314.728 103.379 314.317 103.144C313.965 102.909 313.613 102.909 313.261 103.144C311.618 104.024 309.771 104.464 307.717 104.464C305.723 104.405 303.933 103.936 302.349 103.056Z" fill="black"/>
<path d="M415.622 86.336C415.505 90.032 415.388 93.6987 415.27 97.336C415.153 100.915 414.948 104.464 414.654 107.984C414.361 111.504 413.422 114.115 411.838 115.816C410.313 117.517 408.318 118.368 405.854 118.368C403.156 118.368 401.014 117.371 399.43 115.376C397.846 113.381 397.201 110.448 397.494 106.576C398.316 97.248 398.756 87.9787 398.814 78.768C398.873 69.5573 398.492 60.4933 397.67 51.576C397.318 47.2347 397.905 44.0667 399.43 42.072C401.014 40.0187 403.156 38.992 405.854 38.992C408.318 38.992 410.313 39.8427 411.838 41.544C413.422 43.2453 414.361 45.856 414.654 49.376C415.006 53.776 415.27 58.264 415.446 62.84L418.35 63.104C418.174 58.9973 417.91 54.92 417.558 50.872C417.148 46.472 417.705 43.2453 419.23 41.192C420.756 39.08 422.926 38.024 425.742 38.024C428.148 38.024 430.113 38.904 431.638 40.664C433.222 42.424 434.161 45.1227 434.454 48.76C435.276 58.3227 435.686 68.2373 435.686 78.504C435.686 88.7707 435.276 98.7147 434.454 108.336C434.161 111.856 433.222 114.496 431.638 116.256C430.113 118.016 428.148 118.896 425.742 118.896C422.926 118.896 420.726 117.899 419.142 115.904C417.617 113.909 417.03 110.917 417.382 106.928C417.676 103.408 417.91 99.9467 418.086 96.544C418.321 93.0827 418.497 89.592 418.614 86.072L415.622 86.336ZM362.47 69.088C363.35 68.7947 364.26 68.384 365.198 67.856C366.196 67.2693 367.046 66.5947 367.75 65.832C367.985 65.5973 368.073 65.3333 368.014 65.04C367.956 64.7467 367.838 64.512 367.662 64.336C367.486 64.16 367.281 64.0427 367.046 63.984C366.812 63.9253 366.577 64.0133 366.342 64.248C363.878 66.7707 361.238 67.7387 358.422 67.152C357.249 66.9173 356.252 66.36 355.43 65.48C354.609 64.5413 353.934 63.456 353.406 62.224C352.878 60.9333 352.497 59.5547 352.262 58.088C352.028 56.6213 351.91 55.184 351.91 53.776C351.969 49.024 353.113 45.3867 355.342 42.864C357.572 40.2827 360.446 38.992 363.966 38.992C366.782 38.992 368.894 39.784 370.302 41.368C371.769 42.952 372.913 44.976 373.734 47.44C373.793 47.616 373.94 47.7333 374.174 47.792C374.409 47.8507 374.614 47.8507 374.79 47.792C375.025 47.7333 375.23 47.6453 375.406 47.528C375.582 47.352 375.641 47.1467 375.582 46.912C374.996 44.7413 374.116 42.9813 372.942 41.632C374.057 40.576 375.612 39.872 377.606 39.52C379.601 39.168 381.449 38.992 383.15 38.992C385.028 38.992 386.67 39.3147 388.078 39.96C389.486 40.6053 390.66 41.5147 391.598 42.688C392.596 43.8613 393.388 45.24 393.974 46.824C394.561 48.408 395.001 50.168 395.294 52.104C395.529 54.04 395.705 56.504 395.822 59.496C395.998 62.4293 396.086 65.6267 396.086 69.088C396.086 72.4907 396.057 76.0107 395.998 79.648C395.94 83.2853 395.822 86.776 395.646 90.12C395.529 93.4053 395.353 96.4267 395.118 99.184C394.942 101.883 394.737 104.024 394.502 105.608C394.268 107.251 394.004 108.688 393.71 109.92C393.417 111.211 393.006 112.267 392.478 113.088C391.95 113.968 391.276 114.613 390.454 115.024C389.633 115.493 388.606 115.728 387.374 115.728C386.318 115.728 385.438 115.581 384.734 115.288C384.089 114.995 383.561 114.496 383.15 113.792C382.74 113.147 382.388 112.296 382.094 111.24C381.86 110.184 381.625 108.893 381.39 107.368C381.214 106.371 381.097 104.845 381.038 102.792C380.98 100.68 380.921 98.3333 380.862 95.752C380.804 93.112 380.774 90.3547 380.774 87.48C380.833 84.6053 380.862 81.936 380.862 79.472C380.921 76.9493 380.98 74.7493 381.038 72.872C381.156 70.9947 381.273 69.7333 381.39 69.088C382.153 68.736 382.945 68.296 383.766 67.768C384.588 67.1813 385.262 66.5067 385.79 65.744C386.025 65.4507 386.113 65.1867 386.054 64.952C385.996 64.6587 385.849 64.424 385.614 64.248C385.438 64.072 385.204 63.984 384.91 63.984C384.676 63.9253 384.47 64.0133 384.294 64.248C383.121 65.5387 382.036 66.3893 381.038 66.8C380.041 67.2107 379.014 67.3867 377.958 67.328C378.076 70.672 378.105 74.2213 378.046 77.976C377.988 81.672 377.87 85.28 377.694 88.8C377.518 92.2613 377.284 95.488 376.99 98.48C376.756 101.413 376.492 103.789 376.198 105.608C375.729 108.952 374.908 111.475 373.734 113.176C372.62 114.877 371.036 115.728 368.982 115.728C366.929 115.728 365.316 115.083 364.142 113.792C363.028 112.56 362.236 110.419 361.766 107.368C361.59 106.371 361.473 104.845 361.414 102.792C361.414 100.68 361.414 98.3333 361.414 95.752C361.473 93.112 361.532 90.3547 361.59 87.48C361.649 84.6053 361.737 81.936 361.854 79.472C361.972 76.9493 362.089 74.7493 362.206 72.872C362.324 70.9947 362.412 69.7333 362.47 69.088Z" fill="black"/>
<path d="M147.004 144.952C144.088 144.952 141.928 142.828 141.928 139.924C141.928 137.02 144.076 134.896 146.992 134.896C149.908 134.896 152.068 137.02 152.068 139.924C152.068 142.828 149.92 144.952 147.004 144.952ZM147.004 143.8C149.188 143.8 150.808 142.18 150.808 139.924C150.808 137.656 149.188 136.048 146.992 136.048C144.796 136.048 143.188 137.656 143.188 139.924C143.188 142.18 144.808 143.8 147.004 143.8Z" fill="black"/>
<path d="M161.287 135.124H164.695C167.191 135.124 168.655 136.456 168.655 138.46C168.655 140.464 167.191 141.796 164.695 141.796H162.547V144.736H161.287V135.124ZM164.599 140.656C166.339 140.656 167.395 139.888 167.395 138.46C167.395 137.032 166.339 136.264 164.599 136.264H162.547V140.656H164.599Z" fill="black"/>
<path d="M177.613 135.124H184.441V136.24H178.873V139.264H184.021V140.38H178.873V143.62H184.549V144.736H177.613V135.124Z" fill="black"/>
<path d="M193.727 135.124H194.903L200.723 142.612V135.064H201.995V144.676H200.807L194.987 137.188V144.736H193.727V135.124Z" fill="black"/>
<path d="M226.075 134.896C228.187 134.896 229.747 136.096 229.867 137.776H228.571C228.439 136.756 227.515 135.976 226.015 135.976C224.503 135.976 223.651 136.6 223.651 137.464C223.651 138.46 224.539 138.892 226.591 139.324C228.955 139.828 229.903 140.74 229.903 142.168C229.903 143.896 228.211 144.952 226.075 144.952C223.831 144.952 222.211 143.728 222.079 141.868H223.375C223.507 143.032 224.551 143.86 226.159 143.86C227.599 143.86 228.619 143.2 228.619 142.24C228.619 141.172 227.743 140.74 225.655 140.296C223.483 139.84 222.379 139.06 222.379 137.464C222.379 135.868 223.951 134.896 226.075 134.896Z" fill="black"/>
<path d="M239.06 135.124H245.888V136.24H240.32V139.264H245.468V140.38H240.32V143.62H245.996V144.736H239.06V135.124Z" fill="black"/>
<path d="M258.714 134.896C260.826 134.896 262.386 136.096 262.506 137.776H261.21C261.078 136.756 260.154 135.976 258.654 135.976C257.142 135.976 256.29 136.6 256.29 137.464C256.29 138.46 257.178 138.892 259.23 139.324C261.594 139.828 262.542 140.74 262.542 142.168C262.542 143.896 260.85 144.952 258.714 144.952C256.47 144.952 254.85 143.728 254.718 141.868H256.014C256.146 143.032 257.19 143.86 258.798 143.86C260.238 143.86 261.258 143.2 261.258 142.24C261.258 141.172 260.382 140.74 258.294 140.296C256.122 139.84 255.018 139.06 255.018 137.464C255.018 135.868 256.59 134.896 258.714 134.896Z" fill="black"/>
<path d="M278.686 144.736L277.726 142.36H273.106L272.146 144.736H270.826L274.786 135.124H276.118L280.066 144.736H278.686ZM273.55 141.244H277.282L275.422 136.6L273.55 141.244Z" fill="black"/>
<path d="M288.904 135.124H290.008L293.716 141.652L297.424 135.124H298.528V144.736H297.268V137.644L294.172 143.116H293.26L290.164 137.644V144.736H288.904V135.124Z" fill="black"/>
<path d="M308.136 135.124H314.964V136.24H309.396V139.264H314.544V140.38H309.396V143.62H315.072V144.736H308.136V135.124Z" fill="black"/>
<defs>
<clipPath id="clip0_31634_2241">
<rect width="456" height="180" fill="white"/>
</clipPath>
</defs>
</svg>
