<svg width="20" height="20" viewBox="0 0 20 20" fill="none" xmlns="http://www.w3.org/2000/svg">
<path d="M7.94917 12.6916C6.61695 12.6916 5.48778 12.2288 4.56167 11.3033C3.63612 10.3783 3.17334 9.24938 3.17334 7.9166C3.17334 6.58382 3.63612 5.45466 4.56167 4.5291C5.48723 3.60355 6.6164 3.14105 7.94917 3.1416C9.28195 3.14216 10.4108 3.60494 11.3358 4.52994C12.2608 5.45494 12.7236 6.58382 12.7242 7.9166C12.7242 8.49549 12.6217 9.05577 12.4167 9.59744C12.2117 10.1391 11.9422 10.6024 11.6083 10.9874L16.5325 15.9099C16.6103 15.9877 16.652 16.0835 16.6575 16.1974C16.6625 16.3102 16.6208 16.411 16.5325 16.4999C16.4436 16.5888 16.3453 16.6333 16.2375 16.6333C16.1297 16.6333 16.0314 16.5888 15.9425 16.4999L11.0192 11.5766C10.6025 11.9316 10.1233 12.2063 9.58167 12.4008C9.04001 12.5952 8.49556 12.6924 7.94834 12.6924M7.94834 11.8591C9.0539 11.8591 9.98751 11.4785 10.7492 10.7174C11.5103 9.95632 11.8908 9.02271 11.8908 7.9166C11.8908 6.81049 11.5106 5.87716 10.75 5.1166C9.98945 4.35605 9.05612 3.97549 7.95001 3.97494C6.8439 3.97494 5.91028 4.35549 5.14917 5.1166C4.38806 5.87771 4.00723 6.81105 4.00667 7.9166C4.00612 9.02216 4.38667 9.95549 5.14834 10.7166C5.91001 11.4777 6.84334 11.8591 7.94834 11.8591Z" fill="#818181"/>
<path d="M7.94917 12.6916C6.61695 12.6916 5.48778 12.2288 4.56167 11.3033C3.63612 10.3783 3.17334 9.24938 3.17334 7.9166C3.17334 6.58382 3.63612 5.45466 4.56167 4.5291C5.48723 3.60355 6.6164 3.14105 7.94917 3.1416C9.28195 3.14216 10.4108 3.60494 11.3358 4.52994C12.2608 5.45494 12.7236 6.58382 12.7242 7.9166C12.7242 8.49549 12.6217 9.05577 12.4167 9.59744C12.2117 10.1391 11.9422 10.6024 11.6083 10.9874L16.5325 15.9099C16.6103 15.9877 16.652 16.0835 16.6575 16.1974C16.6625 16.3102 16.6208 16.411 16.5325 16.4999C16.4436 16.5888 16.3453 16.6333 16.2375 16.6333C16.1297 16.6333 16.0314 16.5888 15.9425 16.4999L11.0192 11.5766C10.6025 11.9316 10.1233 12.2063 9.58167 12.4008C9.04001 12.5952 8.49556 12.6924 7.94834 12.6924M7.94834 11.8591C9.0539 11.8591 9.98751 11.4785 10.7492 10.7174C11.5103 9.95632 11.8908 9.02271 11.8908 7.9166C11.8908 6.81049 11.5106 5.87716 10.75 5.1166C9.98945 4.35605 9.05612 3.97549 7.95001 3.97494C6.8439 3.97494 5.91028 4.35549 5.14917 5.1166C4.38806 5.87771 4.00723 6.81105 4.00667 7.9166C4.00612 9.02216 4.38667 9.95549 5.14834 10.7166C5.91001 11.4777 6.84334 11.8591 7.94834 11.8591Z" stroke="#818181" stroke-width="0.5"/>
</svg>
