<svg width="24" height="24" viewBox="0 0 24 24" fill="none" xmlns="http://www.w3.org/2000/svg">
<path d="M5.68596 12.0959C5.91318 10.0644 7.37699 4.11289 9.90403 2.83672C11.0005 2.38498 12.4181 2.40762 13.886 2.89823C15.2609 3.55637 16.5688 4.41705 16.9725 5.76351C17.7744 8.43837 19.2004 12.1742 17.0171 16.2233C16.3077 17.539 15.6462 18.5312 14.5 18.9372C12.9408 19.4895 11.3436 19.847 10.1666 19.2152C8.72307 18.4403 7.23314 17.4391 6.66783 15.9102C6.04765 14.2328 5.59437 12.9149 5.68596 12.0959Z" fill="#E4D5C9"/>
<path d="M8.08898 6.19179C7.98744 6.53329 7.70595 7.15635 7.56536 7.51002C7.56276 7.51648 7.56017 7.52294 7.55757 7.5294C7.52372 7.61294 7.4941 7.69279 7.46008 7.78672C7.37982 8.01193 7.26876 8.31312 7.04251 8.95213C6.9887 9.14018 6.93569 9.3318 6.88499 9.52094C6.65184 10.399 6.44076 11.3033 6.32274 12.1672C6.25415 13.0644 6.7433 14.3598 7.11638 15.5044C7.1261 15.53 7.13618 15.5565 7.14608 15.5825C7.16244 15.6255 7.17927 15.6696 7.19647 15.7147C7.34936 16.13 7.64575 16.564 7.86154 16.8388C8.15892 17.2228 8.41016 17.4619 8.6173 17.656C9.14446 18.0998 9.74534 18.4819 10.3704 18.8355C11.0946 19.2536 12.0835 19.1988 13.01 18.9883C13.4674 18.885 13.9227 18.7438 14.375 18.5842C14.4207 18.5681 14.465 18.5511 14.5095 18.5326C14.9149 18.3656 15.2682 18.0908 15.5711 17.7464C15.7404 17.5393 15.8822 17.3219 16.0069 17.1122C16.1813 16.8176 16.3221 16.5394 16.4438 16.3111C16.4974 16.2103 16.552 16.1079 16.6082 16.0028C16.8535 15.5472 17.0813 15.0582 17.2314 14.665C17.2612 14.5877 17.2891 14.5121 17.3135 14.4429C17.4313 14.0525 17.5213 13.6549 17.5835 13.2521C17.5928 13.2262 17.6021 13.2004 17.6116 13.1736C17.7279 12.8395 17.788 12.4098 17.7953 11.729C17.7973 11.4336 17.7871 11.0883 17.7556 10.6834C17.7348 10.4233 17.7411 10.2853 17.747 10.1735C17.7485 10.1404 17.7499 10.1093 17.75 10.0779C17.7505 9.97051 17.7176 9.86266 17.6767 9.73501C17.6237 9.57018 17.5578 9.37445 17.5287 9.10222C17.4302 8.23412 17.2547 7.87583 17.1342 7.6078C17.098 7.52931 17.0649 7.4583 17.036 7.38338C16.9431 7.14275 16.8551 6.78304 16.8 6.50582C16.7711 6.35838 16.6895 6.11353 16.6028 5.87435C16.5665 5.77666 16.5225 5.6832 16.4767 5.60105C16.4229 5.50424 16.3571 5.37071 16.2611 5.2209C16.1623 5.06593 16.0301 4.89393 15.8596 4.73221C15.4229 4.32883 15.1307 4.16663 14.9086 4.02842C14.8439 3.98984 14.7833 3.95489 14.7218 3.92061C14.528 3.81219 14.2821 3.6824 14.0253 3.56007C13.9011 3.50073 13.7745 3.44283 13.6512 3.38874L13.7136 3.414C13.5299 3.35941 13.3547 3.31613 13.2062 3.28636C12.5731 3.10746 11.9185 3.01115 11.2786 3.0427C10.9502 3.05816 10.6374 3.06819 10.3869 3.05157C10.1376 3.03423 9.96603 2.98597 9.91995 2.87538C9.87413 2.76685 9.96449 2.59844 10.2038 2.43457C10.4418 2.27079 10.8111 2.13935 11.2046 2.1003C11.9968 2.02001 12.7888 2.1032 13.5451 2.2904C13.7124 2.33194 13.8782 2.37879 14.0423 2.43057C14.0538 2.43483 14.088 2.44782 14.0989 2.45347C14.7835 2.76819 15.4678 3.13431 16.0853 3.64576C16.6089 4.08027 17.0896 4.64127 17.3569 5.32842C17.3842 5.39836 17.4095 5.46995 17.4322 5.54165C17.4417 5.56671 17.451 5.59196 17.4599 5.61737C17.6289 6.08264 17.8028 6.55238 17.9136 6.89228C18.0096 7.18515 18.0574 7.40858 18.0964 7.59904C18.1233 7.73006 18.1465 7.84745 18.1781 7.96276C18.1951 8.02477 18.2193 8.11086 18.2471 8.21288C18.3623 8.63152 18.5395 9.35715 18.5994 10.041C18.6271 10.3427 18.6375 10.6987 18.6313 11.0356C18.6241 11.5192 18.5799 11.9662 18.577 12.1938C18.5743 12.5924 18.5083 13.0478 18.423 13.4432C18.3427 13.8221 18.2484 14.1437 18.2157 14.3337C18.1761 14.5615 18.1087 14.7473 17.9981 15.0142C17.9199 15.2011 17.821 15.4264 17.6794 15.7295C17.547 16.0114 17.4295 16.214 17.3227 16.388C17.2972 16.4293 17.2727 16.4684 17.2491 16.5059C17.0777 16.7769 16.948 16.9787 16.7783 17.3025C16.5899 17.6619 16.3476 18.0267 16.1026 18.2785C15.9921 18.3932 15.8629 18.5242 15.7163 18.6505C15.523 18.8181 15.2963 18.9752 15.07 19.0813C14.8978 19.1625 14.7424 19.2042 14.6047 19.2328C14.5944 19.2348 14.5841 19.2368 14.5739 19.2388C14.5317 19.2469 14.4912 19.2545 14.4522 19.2624C14.3121 19.3111 14.1714 19.3584 14.0296 19.404C14.0078 19.4149 13.9848 19.4264 13.9607 19.4383C13.8402 19.498 13.6902 19.5706 13.496 19.6364C13.1883 19.7401 12.9041 19.7905 12.6007 19.8266C12.3645 19.8541 12.1168 19.8736 11.8287 19.8885C11.6321 19.8985 11.4056 19.9042 11.1769 19.8884C10.8384 19.8675 10.4965 19.7878 10.2756 19.687C10.1927 19.6499 10.1274 19.6039 10.0655 19.5565C10.0652 19.5563 10.065 19.5561 10.0647 19.5558C10.0605 19.5526 10.0563 19.5494 10.0521 19.5462C10.0354 19.538 10.0189 19.5297 10.0023 19.5213C9.55132 19.2913 9.10263 19.0453 8.66761 18.7658C8.62723 18.7429 8.58655 18.7195 8.54635 18.6959C8.34982 18.5808 8.16214 18.4599 8.03274 18.3876C7.89253 18.3099 7.57098 18.0675 7.26147 17.7637C7.0581 17.5659 6.8616 17.3418 6.70886 17.1483C6.61926 17.0353 6.55748 16.9109 6.50016 16.7813C6.44663 16.66 6.39688 16.5342 6.33136 16.4015C6.29868 16.3352 6.26086 16.2638 6.22306 16.1866C6.20803 16.1559 6.19293 16.1241 6.17808 16.0912C6.16172 16.0558 6.14531 16.0195 6.12931 15.9821C6.10233 15.919 6.05664 15.7717 5.99905 15.5829C5.96349 15.4662 5.92316 15.3331 5.87997 15.1935C5.74227 14.8326 5.6082 14.4679 5.48609 14.0927C5.44959 14.0171 5.41342 13.9538 5.37654 13.9042C5.35019 13.869 5.32285 13.8409 5.29463 13.8106C5.25639 13.7699 5.21704 13.7278 5.17826 13.6639C5.14823 13.615 5.12527 13.5506 5.12179 13.5063C5.12008 13.4854 5.12225 13.468 5.12431 13.4525C5.12665 13.4348 5.12878 13.419 5.12458 13.4014C5.12153 13.3886 5.11424 13.3768 5.10517 13.3611C5.09076 13.3363 5.0722 13.3043 5.06089 13.2518C5.0186 13.0542 4.98223 12.822 4.9675 12.5757C4.95666 12.394 4.95816 12.2031 4.97953 12.0169C4.98749 11.9478 4.99573 11.8791 5.00332 11.8133C5.02638 11.6091 5.08883 11.3212 5.15869 11.0376C5.20622 10.8449 5.25761 10.649 5.29869 10.4792C5.33773 10.3182 5.36816 10.1404 5.39768 9.97552C5.43457 9.77121 5.4709 9.58199 5.52703 9.42286C5.53824 9.39128 5.56616 9.35557 5.60136 9.31062C5.6263 9.27876 5.65499 9.242 5.684 9.199C5.73843 8.99593 5.79679 8.79087 5.85746 8.58941C5.85721 8.58156 5.85699 8.57347 5.85673 8.56534C5.85671 8.56521 5.85668 8.56507 5.85666 8.56494C5.85102 8.38125 5.84458 8.12885 5.99343 7.82463C6.03137 7.7472 6.06953 7.7026 6.1036 7.66346C6.13716 7.62479 6.16723 7.59034 6.19083 7.53287C6.21761 7.46766 6.23379 7.38479 6.25193 7.29497C6.27737 7.16887 6.3073 7.02733 6.37575 6.89979C6.38042 6.89109 6.38548 6.88174 6.3907 6.87199C6.44017 6.7795 6.51423 6.64338 6.60889 6.51625C6.78856 6.09934 6.98469 5.68866 7.20357 5.28564C7.56975 4.61558 7.99105 3.96268 8.53892 3.38692C8.80465 3.10745 9.13216 2.89529 9.40951 2.81209C9.68622 2.72856 9.87293 2.77016 9.92287 2.87404C9.97559 2.97925 9.90335 3.13569 9.77088 3.33388C9.63549 3.53312 9.44773 3.76892 9.24256 4.01818C8.90522 4.4264 8.62297 4.89576 8.37092 5.38957C8.35878 5.41653 8.34707 5.44279 8.33523 5.4692C8.24691 5.66631 8.18556 5.86061 8.12791 6.05689C8.11464 6.10209 8.10196 6.14661 8.08898 6.19179ZM10.1824 3.47186C10.2068 3.52276 10.1826 3.51149 10.1688 3.50576C10.1685 3.50568 10.1683 3.50559 10.1681 3.5055C10.1648 3.50412 10.1629 3.50451 10.1607 3.50501C10.1554 3.50626 10.1486 3.50762 10.116 3.48705C10.1134 3.49057 10.1104 3.4936 10.107 3.49607C10.0705 3.52263 10.0068 3.51371 9.93352 3.5034C9.93325 3.50401 9.93297 3.50464 9.93269 3.50528C9.92718 3.51767 9.92085 3.53285 9.90006 3.52412C9.87361 3.51305 9.85104 3.50112 9.83173 3.49069C9.77151 3.48548 9.71279 3.48721 9.67072 3.50737C9.65757 3.51365 9.64606 3.52179 9.63673 3.53193C9.62815 3.54125 9.62085 3.55195 9.61485 3.56369C9.61898 3.57734 9.62514 3.5922 9.63092 3.60593C9.63905 3.62522 9.64641 3.64224 9.64621 3.65082C9.64571 3.67152 9.6182 3.67192 9.59748 3.67271C9.5941 3.67283 9.59091 3.67294 9.58806 3.67315C9.58691 3.68648 9.58625 3.70017 9.58578 3.71399C9.58171 3.71163 9.57748 3.70915 9.57314 3.70661C9.51903 3.67489 9.51209 3.68474 9.50133 3.70016C9.49664 3.70688 9.49119 3.71466 9.48073 3.72078C9.47399 3.72471 9.45229 3.71258 9.43454 3.70273C9.42932 3.69983 9.42444 3.69713 9.42038 3.69508C9.40649 3.68808 9.41762 3.70067 9.4308 3.71549C9.44789 3.73474 9.46855 3.7577 9.44217 3.74703C9.35797 3.71323 9.39853 3.75802 9.42962 3.79134C9.43872 3.80114 9.44694 3.80999 9.45092 3.81571C9.4638 3.83423 9.44076 3.82962 9.41275 3.81849C9.39055 3.80966 9.40157 3.83325 9.4195 3.85803C9.42628 3.8674 9.42368 3.87141 9.42055 3.87611C9.41732 3.88098 9.41352 3.8866 9.41924 3.89974C9.43368 3.93293 9.44023 3.94972 9.44543 3.96319C9.44692 3.96703 9.44824 3.97056 9.44968 3.97417C9.45422 3.98559 9.45636 3.99723 9.45848 4.00903C9.46103 4.02315 9.46362 4.0375 9.47046 4.05194C9.44673 4.05969 9.42004 4.06562 9.39324 4.07179C9.3794 4.07489 9.33002 4.05225 9.25397 4.00741C9.17786 3.96252 9.08184 3.89945 8.9849 3.83049C8.88795 3.76153 8.79687 3.69153 8.72952 3.63433C8.66222 3.57717 8.62464 3.53779 8.62318 3.5235C8.62042 3.49483 8.61776 3.46601 8.61843 3.43923C8.61924 3.40663 8.62498 3.37703 8.64123 3.35464C8.6526 3.33899 8.6664 3.32491 8.68215 3.31213C8.68377 3.31081 8.68543 3.30953 8.68709 3.30824C8.67331 3.27757 8.66192 3.24824 8.66142 3.23304C8.66101 3.2205 8.67784 3.22413 8.6922 3.22729C8.70209 3.22945 8.71083 3.23139 8.71208 3.22759C8.71275 3.22555 8.71298 3.22225 8.71328 3.21827C8.71445 3.20205 8.71681 3.17416 8.7526 3.17466C8.76847 3.17489 8.795 3.18153 8.82027 3.188C8.85641 3.19725 8.88993 3.20621 8.88669 3.19461C8.881 3.1742 8.9013 3.17217 8.91922 3.17053C8.93633 3.16895 8.95124 3.16769 8.93976 3.15047C8.92605 3.12986 8.93745 3.13124 8.95426 3.1334C8.96593 3.1349 8.98018 3.13674 8.99067 3.13189C9.0028 3.12626 9.02101 3.13051 9.03644 3.1342C9.05818 3.13938 9.07434 3.14352 9.06117 3.11683C9.04655 3.08718 9.04106 3.06407 9.05534 3.06257C9.06184 3.06188 9.06474 3.05704 9.06779 3.052C9.07181 3.04533 9.07615 3.03827 9.08917 3.04027C9.09992 3.0419 9.12029 3.05387 9.13826 3.06454C9.14387 3.06787 9.14922 3.07105 9.154 3.07376C9.157 3.07009 9.1599 3.06633 9.16265 3.0624C9.16045 3.0593 9.158 3.0559 9.15548 3.05237C9.14283 3.0347 9.12738 3.01295 9.12244 2.99921C9.11464 2.97745 9.13042 2.97964 9.147 2.9822C9.15993 2.98416 9.17328 2.9864 9.17668 2.97723C9.179 2.97098 9.17716 2.9594 9.17544 2.94787C9.17288 2.93074 9.17054 2.91379 9.18173 2.91496C9.18592 2.9154 9.19773 2.92413 9.20945 2.93285C9.20952 2.9329 9.20958 2.93296 9.20965 2.93302C9.21045 2.93361 9.21123 2.93418 9.21202 2.93477C9.21656 2.91483 9.22055 2.89407 9.22441 2.87275C9.22295 2.869 9.22154 2.86527 9.22016 2.86159C9.21344 2.84362 9.20707 2.82605 9.19398 2.80492C9.17977 2.78202 9.17904 2.76173 9.17862 2.74021C9.17833 2.72612 9.1782 2.71149 9.17431 2.69531C9.17206 2.68583 9.1853 2.69406 9.19886 2.70264C9.21153 2.71063 9.22446 2.7189 9.22557 2.71308C9.22613 2.71016 9.22396 2.70384 9.22166 2.69706C9.21964 2.6911 9.2175 2.68477 9.21704 2.68016C9.21664 2.67588 9.22609 2.67846 9.23814 2.68177C9.24559 2.68381 9.25401 2.68613 9.26178 2.68734C9.26609 2.67147 9.27093 2.65578 9.27617 2.6407C9.27005 2.62878 9.26118 2.61405 9.24889 2.59589C9.24007 2.58287 9.22917 2.56759 9.21805 2.55196C9.20291 2.53069 9.18731 2.50868 9.17574 2.49042C9.1667 2.47615 9.16434 2.46946 9.16996 2.47387C9.17258 2.47593 9.17687 2.48033 9.18075 2.48431C9.1852 2.48886 9.18915 2.49292 9.18955 2.49239C9.18982 2.492 9.18737 2.48821 9.18442 2.48361C9.1797 2.47626 9.17363 2.46676 9.17485 2.46527C9.1794 2.4597 9.18783 2.45755 9.19609 2.45552C9.20529 2.45325 9.21426 2.45106 9.21751 2.44428C9.22113 2.4367 9.23997 2.44319 9.25845 2.44999C9.27136 2.45471 9.2842 2.45945 9.29209 2.45944C9.29982 2.45942 9.29944 2.44818 9.29913 2.4372C9.29875 2.42403 9.2985 2.41125 9.31208 2.41943C9.31483 2.4211 9.32675 2.43477 9.34162 2.45191C9.35216 2.46406 9.3642 2.47795 9.37555 2.49059C9.38168 2.48613 9.38827 2.48228 9.39526 2.47897C9.39405 2.47682 9.39283 2.47463 9.39157 2.4724C9.39154 2.47235 9.39151 2.4723 9.39148 2.47225C9.36303 2.42189 9.32508 2.35234 9.36216 2.38366C9.37157 2.39163 9.3858 2.40857 9.39858 2.42384C9.41113 2.43883 9.42233 2.45227 9.42623 2.45401C9.43067 2.45599 9.42629 2.44447 9.4216 2.43191C9.41499 2.41428 9.40777 2.39449 9.42278 2.40724C9.42381 2.40811 9.42492 2.40907 9.42605 2.41003C9.43676 2.41908 9.45265 2.43245 9.47958 2.46281C9.49873 2.46284 9.51889 2.46457 9.53962 2.46746C9.57402 2.47237 9.60991 2.48059 9.64516 2.48959C9.66238 2.49409 9.70089 2.53485 9.75289 2.60594C9.80501 2.67711 9.866 2.77217 9.92526 2.87273C9.98453 2.97329 10.0384 3.07247 10.0779 3.15111C10.1174 3.22969 10.1389 3.28063 10.1387 3.29583C10.1382 3.32041 10.1379 3.34503 10.1375 3.368C10.1382 3.3704 10.1389 3.37274 10.1396 3.37495C10.1442 3.39138 10.1582 3.42148 10.1726 3.4514C10.1759 3.45828 10.1792 3.46516 10.1824 3.47186Z" fill="#542F1A"/>
<path d="M8.08898 6.19179C7.98744 6.53329 7.70595 7.15635 7.56536 7.51002C7.56276 7.51648 7.56017 7.52294 7.55757 7.5294C7.52372 7.61294 7.4941 7.69279 7.46008 7.78672C7.37982 8.01193 7.26876 8.31312 7.04251 8.95213C6.9887 9.14018 6.93569 9.3318 6.88499 9.52094C6.65184 10.399 6.44076 11.3033 6.32274 12.1672C6.25415 13.0644 6.7433 14.3598 7.11638 15.5044C7.1261 15.53 7.13618 15.5565 7.14608 15.5825C7.16244 15.6255 7.17927 15.6696 7.19647 15.7147C7.34936 16.13 7.64575 16.564 7.86154 16.8388C8.15892 17.2228 8.41016 17.4619 8.6173 17.656C9.14446 18.0998 9.74534 18.4819 10.3704 18.8355C11.0946 19.2536 12.0835 19.1988 13.01 18.9883C13.4674 18.885 13.9227 18.7438 14.375 18.5842C14.4207 18.5681 14.465 18.5511 14.5095 18.5326C14.9149 18.3656 15.2682 18.0908 15.5711 17.7464C15.7404 17.5393 15.8822 17.3219 16.0069 17.1122C16.1813 16.8176 16.3221 16.5394 16.4438 16.3111C16.4974 16.2103 16.552 16.1079 16.6082 16.0028C16.8535 15.5472 17.0813 15.0582 17.2314 14.665C17.2612 14.5877 17.2891 14.5121 17.3135 14.4429C17.4313 14.0525 17.5213 13.6549 17.5835 13.2521C17.5928 13.2262 17.6021 13.2004 17.6116 13.1736C17.7279 12.8395 17.788 12.4098 17.7953 11.729C17.7973 11.4336 17.7871 11.0883 17.7556 10.6834C17.7348 10.4233 17.7411 10.2853 17.747 10.1735C17.7485 10.1404 17.7499 10.1093 17.75 10.0779C17.7505 9.97051 17.7176 9.86266 17.6767 9.73501C17.6237 9.57018 17.5578 9.37445 17.5287 9.10222C17.4302 8.23412 17.2547 7.87583 17.1342 7.6078C17.098 7.52931 17.0649 7.4583 17.036 7.38338C16.9431 7.14275 16.8551 6.78304 16.8 6.50582C16.7711 6.35838 16.6895 6.11353 16.6028 5.87435C16.5665 5.77666 16.5225 5.6832 16.4767 5.60105C16.4229 5.50424 16.3571 5.37071 16.2611 5.2209C16.1623 5.06593 16.0301 4.89393 15.8596 4.73221C15.4229 4.32883 15.1307 4.16663 14.9086 4.02842C14.8439 3.98984 14.7833 3.95489 14.7218 3.92061C14.528 3.81219 14.2821 3.6824 14.0253 3.56007C13.9011 3.50073 13.7745 3.44283 13.6512 3.38874L13.7136 3.414C13.5299 3.35941 13.3547 3.31613 13.2062 3.28636C12.5731 3.10746 11.9185 3.01115 11.2786 3.0427C10.9502 3.05816 10.6374 3.06819 10.3869 3.05157C10.1376 3.03423 9.96603 2.98597 9.91995 2.87538C9.87413 2.76685 9.96449 2.59844 10.2038 2.43457C10.4418 2.27079 10.8111 2.13935 11.2046 2.1003C11.9968 2.02001 12.7888 2.1032 13.5451 2.2904C13.7124 2.33194 13.8782 2.37879 14.0423 2.43057C14.0538 2.43483 14.088 2.44782 14.0989 2.45347C14.7835 2.76819 15.4678 3.13431 16.0853 3.64576C16.6089 4.08027 17.0896 4.64127 17.3569 5.32842C17.3842 5.39836 17.4095 5.46995 17.4322 5.54165C17.4417 5.56671 17.451 5.59196 17.4599 5.61737C17.6289 6.08264 17.8028 6.55238 17.9136 6.89228C18.0096 7.18515 18.0574 7.40858 18.0964 7.59904C18.1233 7.73006 18.1465 7.84745 18.1781 7.96276C18.1951 8.02477 18.2193 8.11086 18.2471 8.21288C18.3623 8.63152 18.5395 9.35715 18.5994 10.041C18.6271 10.3427 18.6375 10.6987 18.6313 11.0356C18.6241 11.5192 18.5799 11.9662 18.577 12.1938C18.5743 12.5924 18.5083 13.0478 18.423 13.4432C18.3427 13.8221 18.2484 14.1437 18.2157 14.3337C18.1761 14.5615 18.1087 14.7473 17.9981 15.0142C17.9199 15.2011 17.821 15.4264 17.6794 15.7295C17.547 16.0114 17.4295 16.214 17.3227 16.388C17.2972 16.4293 17.2727 16.4684 17.2491 16.5059C17.0777 16.7769 16.948 16.9787 16.7783 17.3025C16.5899 17.6619 16.3476 18.0267 16.1026 18.2785C15.9921 18.3932 15.8629 18.5242 15.7163 18.6505C15.523 18.8181 15.2963 18.9752 15.07 19.0813C14.8978 19.1625 14.7424 19.2042 14.6047 19.2328C14.5944 19.2348 14.5841 19.2368 14.5739 19.2388C14.5317 19.2469 14.4912 19.2545 14.4522 19.2624C14.3121 19.3111 14.1714 19.3584 14.0296 19.404C14.0078 19.4149 13.9848 19.4264 13.9607 19.4383C13.8402 19.498 13.6902 19.5706 13.496 19.6364C13.1883 19.7401 12.9041 19.7905 12.6007 19.8266C12.3645 19.8541 12.1168 19.8736 11.8287 19.8885C11.6321 19.8985 11.4056 19.9042 11.1769 19.8884C10.8384 19.8675 10.4965 19.7878 10.2756 19.687C10.1927 19.6499 10.1274 19.6039 10.0655 19.5565C10.0652 19.5563 10.065 19.5561 10.0647 19.5558C10.0605 19.5526 10.0563 19.5494 10.0521 19.5462C10.0354 19.538 10.0189 19.5297 10.0023 19.5213C9.55132 19.2913 9.10263 19.0453 8.66761 18.7658C8.62723 18.7429 8.58655 18.7195 8.54635 18.6959C8.34982 18.5808 8.16214 18.4599 8.03274 18.3876C7.89253 18.3099 7.57098 18.0675 7.26147 17.7637C7.0581 17.5659 6.8616 17.3418 6.70886 17.1483C6.61926 17.0353 6.55748 16.9109 6.50016 16.7813C6.44663 16.66 6.39688 16.5342 6.33136 16.4015C6.29868 16.3352 6.26086 16.2638 6.22306 16.1866C6.20803 16.1559 6.19293 16.1241 6.17808 16.0912C6.16172 16.0558 6.14531 16.0195 6.12931 15.9821C6.10233 15.919 6.05664 15.7717 5.99905 15.5829C5.96349 15.4662 5.92316 15.3331 5.87997 15.1935C5.74227 14.8326 5.6082 14.4679 5.48609 14.0927C5.44959 14.0171 5.41342 13.9538 5.37654 13.9042C5.35019 13.869 5.32285 13.8409 5.29463 13.8106C5.25639 13.7699 5.21704 13.7278 5.17826 13.6639C5.14823 13.615 5.12527 13.5506 5.12179 13.5063C5.12008 13.4854 5.12225 13.468 5.12431 13.4525C5.12665 13.4348 5.12878 13.419 5.12458 13.4014C5.12153 13.3886 5.11424 13.3768 5.10517 13.3611C5.09076 13.3363 5.0722 13.3043 5.06089 13.2518C5.0186 13.0542 4.98223 12.822 4.9675 12.5757C4.95666 12.394 4.95816 12.2031 4.97953 12.0169C4.98749 11.9478 4.99573 11.8791 5.00332 11.8133C5.02638 11.6091 5.08883 11.3212 5.15869 11.0376C5.20622 10.8449 5.25761 10.649 5.29869 10.4792C5.33773 10.3182 5.36816 10.1404 5.39768 9.97552C5.43457 9.77121 5.4709 9.58199 5.52703 9.42286C5.53824 9.39128 5.56616 9.35557 5.60136 9.31062C5.6263 9.27876 5.65499 9.242 5.684 9.199C5.73843 8.99593 5.79679 8.79087 5.85746 8.58941C5.85721 8.58156 5.85699 8.57347 5.85673 8.56534C5.85671 8.56521 5.85668 8.56507 5.85666 8.56494C5.85102 8.38125 5.84458 8.12885 5.99343 7.82463C6.03137 7.7472 6.06953 7.7026 6.1036 7.66346C6.13716 7.62479 6.16723 7.59034 6.19083 7.53287C6.21761 7.46766 6.23379 7.38479 6.25193 7.29497C6.27737 7.16887 6.3073 7.02733 6.37575 6.89979C6.38042 6.89109 6.38548 6.88174 6.3907 6.87199C6.44017 6.7795 6.51423 6.64338 6.60889 6.51625C6.78856 6.09934 6.98469 5.68866 7.20357 5.28564C7.56975 4.61558 7.99105 3.96268 8.53892 3.38692C8.80465 3.10745 9.13216 2.89529 9.40951 2.81209C9.68622 2.72856 9.87293 2.77016 9.92287 2.87404C9.97559 2.97925 9.90335 3.13569 9.77088 3.33388C9.63549 3.53312 9.44773 3.76892 9.24256 4.01818C8.90522 4.4264 8.62297 4.89576 8.37092 5.38957C8.35878 5.41653 8.34707 5.44279 8.33523 5.4692C8.24691 5.66631 8.18556 5.86061 8.12791 6.05689C8.11464 6.10209 8.10196 6.14661 8.08898 6.19179ZM10.1824 3.47186C10.2068 3.52276 10.1826 3.51149 10.1688 3.50576C10.1685 3.50568 10.1683 3.50559 10.1681 3.5055C10.1648 3.50412 10.1629 3.50451 10.1607 3.50501C10.1554 3.50626 10.1486 3.50762 10.116 3.48705C10.1134 3.49057 10.1104 3.4936 10.107 3.49607C10.0705 3.52263 10.0068 3.51371 9.93352 3.5034C9.93325 3.50401 9.93297 3.50464 9.93269 3.50528C9.92718 3.51767 9.92085 3.53285 9.90006 3.52412C9.87361 3.51305 9.85104 3.50112 9.83173 3.49069C9.77151 3.48548 9.71279 3.48721 9.67072 3.50737C9.65757 3.51365 9.64606 3.52179 9.63673 3.53193C9.62815 3.54125 9.62085 3.55195 9.61485 3.56369C9.61898 3.57734 9.62514 3.5922 9.63092 3.60593C9.63905 3.62522 9.64641 3.64224 9.64621 3.65082C9.64571 3.67152 9.6182 3.67192 9.59748 3.67271C9.5941 3.67283 9.59091 3.67294 9.58806 3.67315C9.58691 3.68648 9.58625 3.70017 9.58578 3.71399C9.58171 3.71163 9.57748 3.70915 9.57314 3.70661C9.51903 3.67489 9.51209 3.68474 9.50133 3.70016C9.49664 3.70688 9.49119 3.71466 9.48073 3.72078C9.47399 3.72471 9.45229 3.71258 9.43454 3.70273C9.42932 3.69983 9.42444 3.69713 9.42038 3.69508C9.40649 3.68808 9.41762 3.70067 9.4308 3.71549C9.44789 3.73474 9.46855 3.7577 9.44217 3.74703C9.35797 3.71323 9.39853 3.75802 9.42962 3.79134C9.43872 3.80114 9.44694 3.80999 9.45092 3.81571C9.4638 3.83423 9.44076 3.82962 9.41275 3.81849C9.39055 3.80966 9.40157 3.83325 9.4195 3.85803C9.42628 3.8674 9.42368 3.87141 9.42055 3.87611C9.41732 3.88098 9.41352 3.8866 9.41924 3.89974C9.43368 3.93293 9.44023 3.94972 9.44543 3.96319C9.44692 3.96703 9.44824 3.97056 9.44968 3.97417C9.45422 3.98559 9.45636 3.99723 9.45848 4.00903C9.46103 4.02315 9.46362 4.0375 9.47046 4.05194C9.44673 4.05969 9.42004 4.06562 9.39324 4.07179C9.3794 4.07489 9.33002 4.05225 9.25397 4.00741C9.17786 3.96252 9.08184 3.89945 8.9849 3.83049C8.88795 3.76153 8.79687 3.69153 8.72952 3.63433C8.66222 3.57717 8.62464 3.53779 8.62318 3.5235C8.62042 3.49483 8.61776 3.46601 8.61843 3.43923C8.61924 3.40663 8.62498 3.37703 8.64123 3.35464C8.6526 3.33899 8.6664 3.32491 8.68215 3.31213C8.68377 3.31081 8.68543 3.30953 8.68709 3.30824C8.67331 3.27757 8.66192 3.24824 8.66142 3.23304C8.66101 3.2205 8.67784 3.22413 8.6922 3.22729C8.70209 3.22945 8.71083 3.23139 8.71208 3.22759C8.71275 3.22555 8.71298 3.22225 8.71328 3.21827C8.71445 3.20205 8.71681 3.17416 8.7526 3.17466C8.76847 3.17489 8.795 3.18153 8.82027 3.188C8.85641 3.19725 8.88993 3.20621 8.88669 3.19461C8.881 3.1742 8.9013 3.17217 8.91922 3.17053C8.93633 3.16895 8.95124 3.16769 8.93976 3.15047C8.92605 3.12986 8.93745 3.13124 8.95426 3.1334C8.96593 3.1349 8.98018 3.13674 8.99067 3.13189C9.0028 3.12626 9.02101 3.13051 9.03644 3.1342C9.05818 3.13938 9.07434 3.14352 9.06117 3.11683C9.04655 3.08718 9.04106 3.06407 9.05534 3.06257C9.06184 3.06188 9.06474 3.05704 9.06779 3.052C9.07181 3.04533 9.07615 3.03827 9.08917 3.04027C9.09992 3.0419 9.12029 3.05387 9.13826 3.06454C9.14387 3.06787 9.14922 3.07105 9.154 3.07376C9.157 3.07009 9.1599 3.06633 9.16265 3.0624C9.16045 3.0593 9.158 3.0559 9.15548 3.05237C9.14283 3.0347 9.12738 3.01295 9.12244 2.99921C9.11464 2.97745 9.13042 2.97964 9.147 2.9822C9.15993 2.98416 9.17328 2.9864 9.17668 2.97723C9.179 2.97098 9.17716 2.9594 9.17544 2.94787C9.17288 2.93074 9.17054 2.91379 9.18173 2.91496C9.18592 2.9154 9.19773 2.92413 9.20945 2.93285C9.20952 2.9329 9.20958 2.93296 9.20965 2.93302C9.21045 2.93361 9.21123 2.93418 9.21202 2.93477C9.21656 2.91483 9.22055 2.89407 9.22441 2.87275C9.22295 2.869 9.22154 2.86527 9.22016 2.86159C9.21344 2.84362 9.20707 2.82605 9.19398 2.80492C9.17977 2.78202 9.17904 2.76173 9.17862 2.74021C9.17833 2.72612 9.1782 2.71149 9.17431 2.69531C9.17206 2.68583 9.1853 2.69406 9.19886 2.70264C9.21153 2.71063 9.22446 2.7189 9.22557 2.71308C9.22613 2.71016 9.22396 2.70384 9.22166 2.69706C9.21964 2.6911 9.2175 2.68477 9.21704 2.68016C9.21664 2.67588 9.22609 2.67846 9.23814 2.68177C9.24559 2.68381 9.25401 2.68613 9.26178 2.68734C9.26609 2.67147 9.27093 2.65578 9.27617 2.6407C9.27005 2.62878 9.26118 2.61405 9.24889 2.59589C9.24007 2.58287 9.22917 2.56759 9.21805 2.55196C9.20291 2.53069 9.18731 2.50868 9.17574 2.49042C9.1667 2.47615 9.16434 2.46946 9.16996 2.47387C9.17258 2.47593 9.17687 2.48033 9.18075 2.48431C9.1852 2.48886 9.18915 2.49292 9.18955 2.49239C9.18982 2.492 9.18737 2.48821 9.18442 2.48361C9.1797 2.47626 9.17363 2.46676 9.17485 2.46527C9.1794 2.4597 9.18783 2.45755 9.19609 2.45552C9.20529 2.45325 9.21426 2.45106 9.21751 2.44428C9.22113 2.4367 9.23997 2.44319 9.25845 2.44999C9.27136 2.45471 9.2842 2.45945 9.29209 2.45944C9.29982 2.45942 9.29944 2.44818 9.29913 2.4372C9.29875 2.42403 9.2985 2.41125 9.31208 2.41943C9.31483 2.4211 9.32675 2.43477 9.34162 2.45191C9.35216 2.46406 9.3642 2.47795 9.37555 2.49059C9.38168 2.48613 9.38827 2.48228 9.39526 2.47897C9.39405 2.47682 9.39283 2.47463 9.39157 2.4724C9.39154 2.47235 9.39151 2.4723 9.39148 2.47225C9.36303 2.42189 9.32508 2.35234 9.36216 2.38366C9.37157 2.39163 9.3858 2.40857 9.39858 2.42384C9.41113 2.43883 9.42233 2.45227 9.42623 2.45401C9.43067 2.45599 9.42629 2.44447 9.4216 2.43191C9.41499 2.41428 9.40777 2.39449 9.42278 2.40724C9.42381 2.40811 9.42492 2.40907 9.42605 2.41003C9.43676 2.41908 9.45265 2.43245 9.47958 2.46281C9.49873 2.46284 9.51889 2.46457 9.53962 2.46746C9.57402 2.47237 9.60991 2.48059 9.64516 2.48959C9.66238 2.49409 9.70089 2.53485 9.75289 2.60594C9.80501 2.67711 9.866 2.77217 9.92526 2.87273C9.98453 2.97329 10.0384 3.07247 10.0779 3.15111C10.1174 3.22969 10.1389 3.28063 10.1387 3.29583C10.1382 3.32041 10.1379 3.34503 10.1375 3.368C10.1382 3.3704 10.1389 3.37274 10.1396 3.37495C10.1442 3.39138 10.1582 3.42148 10.1726 3.4514C10.1759 3.45828 10.1792 3.46516 10.1824 3.47186Z" fill="#E4D5C9"/>
<ellipse cx="0.293927" cy="0.644177" rx="0.293927" ry="0.644177" transform="matrix(0.997672 0.0681979 -0.0687951 0.997631 11.0247 7.1377)" fill="#542F1A"/>
<path d="M12.0497 7.6518C12.0557 7.65657 12.0247 7.66465 12.0233 7.67043C12.0167 7.69478 11.9951 7.7038 11.9829 7.72504C11.9653 7.75575 12.0016 7.85135 11.7848 7.83534C11.7848 7.83534 11.7848 7.83533 11.7848 7.83533C11.7827 7.83519 11.7805 7.83503 11.7783 7.83487C11.7371 7.8317 11.6925 7.82197 11.6459 7.81813C11.5993 7.8143 11.298 7.7956 11.2814 7.78794C11.2597 7.77719 11.3379 7.75587 11.3346 7.74986C11.3323 7.74596 11.305 7.74083 11.3001 7.73611C11.2846 7.72116 11.3046 7.71235 11.2298 7.70111C11.2689 7.69517 11.308 7.68856 11.3471 7.68144C11.3286 7.67501 11.3798 7.6613 11.3767 7.65672C11.3741 7.65308 11.343 7.65291 11.3413 7.64929C11.3392 7.64533 11.3722 7.63609 11.3665 7.62862C11.3572 7.61641 11.2763 7.62239 11.2654 7.61672C11.254 7.61104 11.2964 7.59424 11.2668 7.5891C11.2578 7.58924 11.2489 7.58942 11.2399 7.58964C11.22 7.59332 11.2002 7.59695 11.1803 7.60051C11.1705 7.59794 11.2111 7.59011 11.2112 7.58611C11.2114 7.58142 11.1724 7.58561 11.1721 7.58284C11.1719 7.58059 11.2023 7.57197 11.1998 7.56918C11.1963 7.56519 11.1519 7.57462 11.1431 7.57404C11.1397 7.57357 11.1121 7.56356 11.1115 7.56314C11.1085 7.55767 11.1687 7.54262 11.1727 7.53593C11.1832 7.5172 11.1307 7.51735 11.11 7.51568C11.1006 7.51475 11.1027 7.51017 11.1107 7.50341C11.2609 7.45065 11.3668 7.38336 11.1411 7.48828C11.1718 7.47005 11.1096 7.49557 11.119 7.48907C11.1251 7.48468 11.1551 7.46758 11.1533 7.46617C11.1485 7.46182 11.0706 7.52184 11.2147 7.41868C11.1892 7.43634 11.2354 7.39243 11.1279 7.50602C11.1246 7.51634 11.1948 7.45406 11.2042 7.44519C11.2137 7.43867 11.2623 7.41807 11.2692 7.41635C11.2759 7.41618 11.2871 7.41605 11.2917 7.43031C11.2936 7.43607 11.294 7.45693 11.2959 7.47619C11.2981 7.51644 11.3172 7.54925 11.3184 7.42047C11.3344 7.43442 11.3418 7.42678 11.343 7.40317C11.3432 7.39888 11.3336 7.37243 11.334 7.37224C11.3348 7.37194 11.3446 7.39044 11.3476 7.39179C11.3529 7.39378 11.3235 7.34229 11.3685 7.42078C11.3781 7.43275 11.3884 7.44421 11.3991 7.45519C11.3898 7.44039 11.3801 7.4259 11.3699 7.41173C11.3815 7.4268 11.3937 7.44146 11.4063 7.45573C11.3243 7.35368 11.3717 7.41473 11.4222 7.47031C11.4063 7.44823 11.3862 7.42971 11.3639 7.41412C11.2536 7.31409 11.3429 7.41238 11.4086 7.45989C11.4083 7.46007 11.408 7.46028 11.4077 7.46047C11.3742 7.4392 11.3978 7.46158 11.3723 7.45217C11.3461 7.44369 11.3341 7.43579 11.2741 7.4026C11.2762 7.40672 11.2783 7.41089 11.2805 7.41489C11.4382 7.51706 11.1543 7.35874 11.2707 7.4474C11.1615 7.40215 11.2076 7.45002 11.236 7.47516C11.2392 7.47815 11.2604 7.48688 11.2662 7.49134C11.2802 7.50194 11.2482 7.50298 11.3174 7.52867C11.2961 7.52474 11.2746 7.52123 11.253 7.51815C11.2644 7.52609 11.2759 7.5338 11.2875 7.54137C11.3093 7.54884 11.3311 7.55631 11.3529 7.56378C11.2765 7.54433 11.3017 7.56471 11.2822 7.56402C11.2783 7.56392 11.2478 7.55473 11.2385 7.55562C11.2274 7.55664 11.2342 7.56684 11.2233 7.56891C11.2567 7.58039 11.2901 7.59166 11.3235 7.60273C11.3399 7.61536 11.2493 7.59436 11.241 7.59775C11.2395 7.5983 11.2418 7.61674 11.2436 7.61803C11.2572 7.62902 11.3348 7.64442 11.314 7.66062C11.3103 7.66351 11.2828 7.66106 11.2811 7.66424C11.2778 7.67011 11.3358 7.69874 11.3923 7.70928C11.3203 7.70392 11.3464 7.72721 11.3252 7.72977C11.3186 7.73055 11.2732 7.72469 11.2628 7.72887C11.2543 7.73232 11.2893 7.74817 11.2826 7.75284C11.2754 7.7579 11.2369 7.75608 11.2339 7.75857C11.2311 7.76094 11.2618 7.76636 11.2613 7.76979C11.2592 7.78031 11.2086 7.78632 11.207 7.79543C11.207 7.79556 11.207 7.7957 11.207 7.79584C11.2066 7.80904 11.2963 7.8249 11.3363 7.83585C11.3302 7.838 11.3104 7.83969 11.3102 7.84226C11.3062 7.87384 11.2897 7.90938 11.2721 7.9427C11.2637 7.95696 11.1437 8.00883 11.3496 7.97609C11.3861 7.97618 11.3073 8.01998 11.3075 8.02745C11.3073 8.0341 11.345 8.03247 11.3464 8.03691C11.3506 8.05015 11.3266 8.06676 11.3621 8.07406C11.3714 8.07591 11.4151 8.06784 11.4151 8.0698C11.4151 8.07225 11.3748 8.08697 11.3732 8.09115C11.3698 8.101 11.3876 8.109 11.3829 8.11696C11.382 8.11849 11.3473 8.13306 11.3372 8.13927C11.2978 8.16395 11.3054 8.17059 11.4127 8.11711C11.3539 8.15201 11.4118 8.12809 11.4144 8.12498C11.4212 8.12324 11.3915 8.1159 11.3569 8.04453C11.3375 8.00259 11.3441 7.94383 11.2643 7.98085C11.2632 7.98144 11.2621 7.98205 11.261 7.98269C11.2454 7.99169 11.2308 8.00454 11.216 8.01721C11.173 8.05102 11.1932 8.15067 11.1309 8.04691C11.1193 8.08581 11.0953 8.07768 11.1545 8.16106C11.139 8.142 11.1231 8.12325 11.107 8.10478C11.1058 8.10499 11.1046 8.10516 11.1035 8.1053C11.1187 8.12314 11.134 8.14083 11.1495 8.1584C11.1542 8.16257 11.0841 8.09665 11.0839 8.09788C11.0837 8.10084 11.1284 8.10111 11.1636 8.10059C11.182 8.10123 11.1367 8.0798 11.2321 8.11908C11.2264 8.11425 11.2208 8.10946 11.215 8.10479C11.1949 8.09442 11.1748 8.08418 11.1546 8.07407C11.1576 8.06507 11.1949 8.06646 11.1984 8.05599C11.205 8.03637 11.1543 7.99035 11.1989 7.98108C11.2101 7.97876 11.257 7.98338 11.2578 7.97768C11.259 7.96943 11.1842 7.95024 11.1848 7.94071C11.186 7.92519 11.2802 7.90874 11.276 7.88966C11.2748 7.88421 11.2467 7.87777 11.2441 7.87394C11.233 7.85796 11.2368 7.84596 11.194 7.82811C11.2691 7.82082 11.3641 7.82986 11.4607 7.83257C11.5336 7.83486 11.7029 7.83273 11.7666 7.83437C11.8114 7.83575 11.8685 7.84598 11.9178 7.84707C11.955 7.87905 11.9105 7.88874 11.8392 7.90397C11.8374 7.94595 11.8342 7.98802 11.8291 8.03049C11.8019 8.02934 11.7748 8.02815 11.7476 8.02668C11.7476 8.02667 11.7475 8.02665 11.7475 8.02664C11.714 8.03587 11.7806 8.05591 11.7941 8.06796C11.9252 8.1848 11.7546 8.33222 11.685 8.41309C11.6724 8.43045 11.6556 8.52122 11.608 8.50911C11.5961 8.50587 11.5629 8.48095 11.5586 8.48342C11.5512 8.53134 11.5364 8.58366 11.5017 8.63932C11.4124 8.6513 11.3281 8.69987 11.2111 8.70625C11.1525 8.70965 11.091 8.69957 11.0419 8.67759C10.6933 8.46664 10.6851 8.25144 10.6544 8.05761C10.652 8.02001 10.6176 7.9741 10.6365 7.93663C10.6443 7.92085 10.7107 7.91363 10.6608 7.89493C10.6788 7.89453 10.6967 7.89413 10.7147 7.89375C10.6928 7.87737 10.652 7.86647 10.6482 7.84702C10.6449 7.83079 10.6439 7.78781 10.6518 7.77408C10.6557 7.76691 10.689 7.77173 10.6892 7.76499C10.6893 7.76364 10.6887 7.76208 10.6876 7.76034C10.6797 7.74717 10.6453 7.72316 10.6468 7.70856C10.6482 7.69355 10.6894 7.67341 10.6852 7.66166C10.6705 7.6196 10.6214 7.56453 10.6458 7.52237C10.6526 7.51092 10.6986 7.50449 10.6983 7.50064C10.6975 7.49279 10.6569 7.48096 10.6528 7.47462C10.6323 7.44171 10.6918 7.414 10.7015 7.38969C10.7328 7.31002 10.7505 7.21438 10.8101 7.12934C10.8446 7.0777 10.9159 6.97183 11.0083 6.94323C11.0274 6.93734 11.0507 6.97774 11.0625 6.9694C11.0759 6.96011 11.0675 6.92869 11.0738 6.92201C11.1038 6.87892 11.2477 6.80076 11.3403 6.8323C11.3491 6.83483 11.3569 6.83803 11.3636 6.8418C11.3777 6.84973 11.3814 6.88727 11.3889 6.88862C11.3927 6.88938 11.4071 6.86698 11.4208 6.86795C11.5419 6.87894 11.5992 6.94446 11.647 7.0053C11.7351 7.12277 11.8185 7.21772 11.8252 7.32377C11.8262 7.34667 11.7603 7.37884 11.7617 7.38112C11.7646 7.38671 11.8124 7.37877 11.8271 7.38902C11.8757 7.42363 11.8349 7.48994 11.8636 7.52525C11.8778 7.5429 11.9416 7.56408 11.9568 7.58323C11.9691 7.59878 11.9473 7.63755 11.9744 7.64335C11.9908 7.64687 12.043 7.64667 12.0497 7.6518ZM11.1871 7.44413C11.2589 7.40166 11.1965 7.43262 11.1599 7.45858C11.1514 7.46399 11.1682 7.45486 11.1871 7.44413ZM11.1635 7.88563C11.1873 7.88527 11.2112 7.88492 11.235 7.88458C11.2251 7.88221 11.2151 7.87974 11.2052 7.87725C11.1909 7.87865 11.1766 7.88015 11.1622 7.88167C11.1627 7.883 11.1631 7.88432 11.1635 7.88563Z" fill="#542F1A"/>
<ellipse cx="0.293927" cy="0.644177" rx="0.293927" ry="0.644177" transform="matrix(0.997672 0.0681979 -0.0687951 0.997631 13.9321 7.31689)" fill="#542F1A"/>
<path d="M14.9572 7.831C14.9632 7.83577 14.9322 7.84385 14.9307 7.84963C14.9242 7.87398 14.9026 7.883 14.8903 7.90424C14.8728 7.93495 14.9091 8.03055 14.6923 8.01453C14.6923 8.01453 14.6922 8.01453 14.6922 8.01453C14.6901 8.01439 14.688 8.01423 14.6858 8.01407C14.6446 8.0109 14.6 8.00117 14.5534 7.99733C14.5068 7.9935 14.2054 7.9748 14.1889 7.96714C14.1672 7.95639 14.2454 7.93507 14.2421 7.92906C14.2398 7.92516 14.2124 7.92003 14.2076 7.91531C14.192 7.90036 14.212 7.89155 14.1372 7.88031C14.1764 7.87437 14.2155 7.86776 14.2546 7.86064C14.2361 7.8542 14.2873 7.8405 14.2842 7.83592C14.2816 7.83228 14.2505 7.83211 14.2488 7.82849C14.2467 7.82453 14.2797 7.81529 14.2739 7.80782C14.2647 7.79561 14.1838 7.80159 14.1728 7.79592C14.1615 7.79024 14.2038 7.77344 14.1743 7.7683C14.1653 7.76844 14.1563 7.76862 14.1474 7.76884C14.1275 7.77252 14.1077 7.77614 14.0878 7.77971C14.0779 7.77714 14.1186 7.76931 14.1187 7.76531C14.1189 7.76062 14.0798 7.76481 14.0796 7.76204C14.0794 7.75979 14.1098 7.75116 14.1072 7.74838C14.1037 7.74439 14.0593 7.75382 14.0506 7.75324C14.0472 7.75277 14.0195 7.74276 14.019 7.74234C14.0159 7.73687 14.0762 7.72182 14.0801 7.71513C14.0907 7.6964 14.0382 7.69655 14.0174 7.69488C14.0081 7.69395 14.0102 7.68937 14.0181 7.68261C14.1683 7.62984 14.2742 7.56256 14.0486 7.66748C14.0792 7.64925 14.017 7.67477 14.0265 7.66827C14.0326 7.66388 14.0626 7.64678 14.0607 7.64537C14.056 7.64102 13.978 7.70104 14.1222 7.59788C14.0966 7.61554 14.1429 7.57163 14.0353 7.68522C14.0321 7.69554 14.1022 7.63326 14.1117 7.62439C14.1211 7.61787 14.1698 7.59726 14.1767 7.59555C14.1834 7.59538 14.1946 7.59525 14.1992 7.60951C14.201 7.61527 14.2014 7.63613 14.2034 7.65539C14.2056 7.69564 14.2247 7.72845 14.2259 7.59967C14.2418 7.61362 14.2492 7.60598 14.2505 7.58237C14.2507 7.57808 14.2411 7.55163 14.2415 7.55144C14.2423 7.55114 14.2521 7.56964 14.2551 7.57099C14.2604 7.57298 14.231 7.52149 14.276 7.59998C14.2856 7.61195 14.2958 7.62341 14.3066 7.63439C14.2973 7.61959 14.2875 7.6051 14.2773 7.59093C14.289 7.606 14.3011 7.62066 14.3137 7.63493C14.2318 7.53288 14.2792 7.59393 14.3297 7.64951C14.3138 7.62743 14.2937 7.60891 14.2713 7.59332C14.1611 7.49329 14.2503 7.59158 14.3161 7.63909C14.3158 7.63927 14.3155 7.63948 14.3152 7.63967C14.2816 7.6184 14.3053 7.64078 14.2797 7.63137C14.2536 7.62289 14.2415 7.61499 14.1816 7.5818C14.1837 7.58592 14.1858 7.59008 14.188 7.59409C14.3457 7.69626 14.0618 7.53794 14.1782 7.6266C14.0689 7.58135 14.115 7.62922 14.1434 7.65436C14.1467 7.65735 14.1679 7.66608 14.1737 7.67054C14.1876 7.68113 14.1557 7.68218 14.2249 7.70787C14.2036 7.70394 14.1821 7.70043 14.1605 7.69735C14.1719 7.70529 14.1834 7.713 14.195 7.72057C14.2168 7.72804 14.2386 7.73551 14.2604 7.74298C14.184 7.72353 14.2091 7.74391 14.1897 7.74322C14.1857 7.74312 14.1553 7.73393 14.146 7.73482C14.1349 7.73584 14.1417 7.74604 14.1308 7.74811C14.1641 7.75959 14.1975 7.77086 14.231 7.78193C14.2473 7.79456 14.1568 7.77356 14.1484 7.77695C14.147 7.7775 14.1493 7.79594 14.1511 7.79722C14.1647 7.80822 14.2422 7.82362 14.2215 7.83982C14.2177 7.84271 14.1903 7.84026 14.1885 7.84344C14.1853 7.84931 14.2433 7.87794 14.2998 7.88848C14.2278 7.88311 14.2539 7.90641 14.2326 7.90897C14.2261 7.90975 14.1807 7.90388 14.1703 7.90807C14.1618 7.91152 14.1968 7.92737 14.1901 7.93204C14.1828 7.9371 14.1444 7.93528 14.1414 7.93777C14.1386 7.94014 14.1692 7.94556 14.1687 7.94899C14.1667 7.95951 14.116 7.96552 14.1145 7.97463C14.1145 7.97476 14.1145 7.9749 14.1144 7.97504C14.1141 7.98824 14.2038 8.00409 14.2438 8.01505C14.2377 8.0172 14.2179 8.01889 14.2176 8.02146C14.2137 8.05304 14.1972 8.08858 14.1796 8.1219C14.1712 8.13616 14.0511 8.18803 14.2571 8.15529C14.2936 8.15538 14.2148 8.19918 14.2149 8.20664C14.2148 8.2133 14.2524 8.21167 14.2538 8.21611C14.258 8.22935 14.2341 8.24595 14.2696 8.25326C14.2789 8.25511 14.3226 8.24704 14.3226 8.249C14.3225 8.25145 14.2823 8.26617 14.2807 8.27035C14.2773 8.2802 14.2951 8.2882 14.2904 8.29616C14.2894 8.29769 14.2548 8.31226 14.2447 8.31847C14.2052 8.34315 14.2128 8.34979 14.3202 8.29631C14.2614 8.33121 14.3192 8.30729 14.3219 8.30417C14.3287 8.30244 14.2989 8.2951 14.2644 8.22373C14.2449 8.18179 14.2516 8.12303 14.1718 8.16004C14.1707 8.16064 14.1696 8.16125 14.1685 8.16188C14.1529 8.17089 14.1383 8.18374 14.1235 8.1964C14.0804 8.23022 14.1007 8.32987 14.0383 8.22611C14.0268 8.26501 14.0028 8.25688 14.062 8.34026C14.0465 8.3212 14.0306 8.30245 14.0144 8.28398C14.0132 8.28419 14.0121 8.28436 14.011 8.2845C14.0262 8.30233 14.0415 8.32003 14.057 8.3376C14.0616 8.34177 13.9916 8.27585 13.9914 8.27708C13.9912 8.28004 14.0359 8.28031 14.0711 8.27978C14.0895 8.28043 14.0441 8.259 14.1396 8.29828C14.1339 8.29345 14.1282 8.28866 14.1225 8.28399C14.1024 8.27362 14.0822 8.26338 14.062 8.25327C14.0651 8.24427 14.1023 8.24566 14.1058 8.23519C14.1125 8.21557 14.0618 8.16955 14.1063 8.16028C14.1176 8.15796 14.1644 8.16258 14.1653 8.15688C14.1665 8.14863 14.0917 8.12944 14.0923 8.1199C14.0935 8.10439 14.1877 8.08794 14.1835 8.06886C14.1823 8.06341 14.1542 8.05697 14.1516 8.05314C14.1405 8.03716 14.1443 8.02516 14.1014 8.00731C14.1765 8.00002 14.2716 8.00906 14.3682 8.01177C14.441 8.01406 14.6103 8.01192 14.6741 8.01357C14.7189 8.01495 14.7759 8.02518 14.8253 8.02627C14.8624 8.05825 14.818 8.06794 14.7466 8.08317C14.7449 8.12515 14.7416 8.16722 14.7365 8.20969C14.7094 8.20854 14.6822 8.20735 14.6551 8.20588C14.655 8.20587 14.655 8.20585 14.6549 8.20584C14.6215 8.21507 14.6881 8.23511 14.7016 8.24716C14.8327 8.364 14.6621 8.51142 14.5925 8.59229C14.5799 8.60965 14.5631 8.70041 14.5155 8.68831C14.5036 8.68507 14.4704 8.66015 14.4661 8.66262C14.4587 8.71054 14.4438 8.76286 14.4091 8.81852C14.3199 8.8305 14.2356 8.87906 14.1186 8.88545C14.06 8.88885 13.9984 8.87877 13.9494 8.85679C13.6008 8.64584 13.5925 8.43063 13.5618 8.2368C13.5595 8.19921 13.5251 8.1533 13.5439 8.11583C13.5517 8.10005 13.6182 8.09283 13.5683 8.07413C13.5862 8.07373 13.6042 8.07333 13.6221 8.07295C13.6003 8.05656 13.5595 8.04567 13.5556 8.02621C13.5524 8.00999 13.5514 7.96701 13.5593 7.95328C13.5631 7.94611 13.5964 7.95093 13.5967 7.94419C13.5967 7.94284 13.5961 7.94128 13.5951 7.93954C13.5872 7.92637 13.5528 7.90236 13.5542 7.88776C13.5556 7.87274 13.5968 7.85261 13.5927 7.84086C13.578 7.7988 13.5288 7.74373 13.5533 7.70157C13.5601 7.69012 13.6061 7.68369 13.6057 7.67984C13.6049 7.67199 13.5643 7.66016 13.5603 7.65382C13.5398 7.62091 13.5993 7.5932 13.609 7.56889C13.6403 7.48922 13.658 7.39358 13.7175 7.30854C13.7521 7.25689 13.8234 7.15102 13.9158 7.12243C13.9349 7.11654 13.9581 7.15694 13.9699 7.1486C13.9834 7.1393 13.975 7.10788 13.9812 7.10121C14.0113 7.05812 14.1552 6.97996 14.2478 7.0115C14.2565 7.01403 14.2643 7.01722 14.271 7.021C14.2852 7.02893 14.2888 7.06647 14.2964 7.06782C14.3002 7.06858 14.3145 7.04618 14.3282 7.04715C14.4493 7.05814 14.5067 7.12366 14.5545 7.1845C14.6425 7.30197 14.7259 7.39692 14.7326 7.50297C14.7337 7.52587 14.6678 7.55804 14.6692 7.56032C14.6721 7.5659 14.7199 7.55797 14.7346 7.56822C14.7832 7.60283 14.7424 7.66914 14.771 7.70445C14.7853 7.7221 14.8491 7.74327 14.8643 7.76243C14.8765 7.77798 14.8547 7.81675 14.8818 7.82255C14.8982 7.82607 14.9505 7.82587 14.9572 7.831ZM14.0945 7.62333C14.1664 7.58086 14.104 7.61182 14.0674 7.63778C14.0589 7.64319 14.0757 7.63406 14.0945 7.62333ZM14.071 8.06483C14.0948 8.06447 14.1186 8.06412 14.1425 8.06377C14.1325 8.06141 14.1226 8.05894 14.1127 8.05645C14.0984 8.05785 14.084 8.05935 14.0697 8.06087C14.0701 8.0622 14.0706 8.06352 14.071 8.06483Z" fill="#542F1A"/>
</svg>
