<svg width="161" height="46" viewBox="0 0 161 46" fill="none" xmlns="http://www.w3.org/2000/svg">
<rect x="0.5" y="0.5" width="160" height="45" rx="7.5" fill="#F5F1EE"/>
<rect x="0.5" y="0.5" width="160" height="45" rx="7.5" stroke="#542F1A"/>
<path d="M35.4219 16.375V19.6406H37.5156V20.6719H35.4219V23.7812H34.2031V16.375H35.4219ZM31.375 17.2969V18.3125H26.4375V22.2812C29.2266 22.2812 30.8125 22.1953 32.6719 21.8125L32.8281 22.8281C30.875 23.2188 29.2188 23.3125 26.2969 23.3125H25.2188V17.2969H31.375ZM27.8438 24.5312V26.2656H34.2031V24.5312H35.4219V30.0312H26.625V24.5312H27.8438ZM27.8438 29.0156H34.2031V27.25H27.8438V29.0156ZM49.9062 16.3906V26.6719H48.6719V22.9375H45.3906V24.2969H39.0938V17.3125H40.3125V19.7812H44.1875V17.3125H45.3906V18.9375H48.6719V16.3906H49.9062ZM50.2188 28.9375V29.9688H40.9219V25.6562H42.1562V28.9375H50.2188ZM40.3125 23.2812H44.1875V20.75H40.3125V23.2812ZM45.3906 21.9219H48.6719V19.9688H45.3906V21.9219ZM62.9688 16.375V22.1094H65.2969V23.125H62.9688V30.2656H61.75V16.375H62.9688ZM60.4062 18.6094V19.625H52.1406V18.6094H55.7188V16.5469H56.9375V18.6094H60.4062ZM56.3438 20.7812C58.3125 20.7812 59.7344 22.0938 59.75 23.9688C59.7344 25.8438 58.3125 27.1562 56.3438 27.1562C54.3594 27.1562 52.9219 25.8438 52.9375 23.9688C52.9219 22.0938 54.3594 20.7812 56.3438 20.7812ZM56.3438 21.8125C55.0469 21.8125 54.0938 22.7188 54.1094 23.9688C54.0938 25.2344 55.0469 26.125 56.3438 26.1094C57.625 26.125 58.5625 25.2344 58.5781 23.9688C58.5625 22.7188 57.625 21.8125 56.3438 21.8125ZM77.5469 16.375V30.2969H76.3281V22.75H73.625V21.7188H76.3281V16.375H77.5469ZM72.7812 17.6719V22.5312H67.7969V25.9062C70.1875 25.9062 71.9219 25.8359 73.9531 25.4531L74.0469 26.4844C71.9531 26.8594 70.1562 26.9375 67.6406 26.9531H66.5781V21.5156H71.5938V18.6875H66.5312V17.6719H72.7812ZM94.6406 16.375V22.0312H96.8906V23.0625H94.6406V30.2656H93.4219V16.375H94.6406ZM91.0469 17.875C91.0469 21.8125 89.2031 25.3906 84.6719 27.625L83.9844 26.6562C87.5781 24.8672 89.5312 22.1953 89.8125 18.9062H84.625V17.875H91.0469ZM109.203 16.375V30.2656H107.969V16.375H109.203ZM105.094 17.8906C105.078 21.8906 103.219 25.4219 98.5625 27.6562L97.8906 26.6562C101.648 24.875 103.562 22.2109 103.844 18.8906H98.5312V17.8906H105.094Z" fill="#542F1A"/>
<path fill-rule="evenodd" clip-rule="evenodd" d="M122.188 23C122.188 22.6893 122.439 22.4375 122.75 22.4375H133.25C133.561 22.4375 133.812 22.6893 133.812 23C133.812 23.3107 133.561 23.5625 133.25 23.5625H122.75C122.439 23.5625 122.188 23.3107 122.188 23Z" fill="#542F1A"/>
<path fill-rule="evenodd" clip-rule="evenodd" d="M127.602 17.3523C127.822 17.1326 128.178 17.1326 128.398 17.3523L133.648 22.6023C133.867 22.8219 133.867 23.1781 133.648 23.3977L128.398 28.6477C128.178 28.8674 127.822 28.8674 127.602 28.6477C127.383 28.4281 127.383 28.0719 127.602 27.8523L132.455 23L127.602 18.1477C127.383 17.9281 127.383 17.5719 127.602 17.3523Z" fill="#542F1A"/>
</svg>
