<svg width="23" height="17" viewBox="0 0 23 17" fill="none" xmlns="http://www.w3.org/2000/svg">
<path d="M15.426 2.14206C15.846 2.09406 16.17 2.28606 16.398 2.71806C16.626 3.13806 16.74 3.85206 16.74 4.86006C16.74 5.85606 16.626 6.57006 16.398 7.00206C16.17 7.43406 15.846 7.62606 15.426 7.57806L14.832 7.50606C14.82 7.60206 14.808 7.69806 14.796 7.79406C14.796 7.87806 14.784 7.96806 14.76 8.06406C14.676 8.66406 14.43 9.10806 14.022 9.39606C13.614 9.67206 13.092 9.81006 12.456 9.81006C11.724 9.81006 11.148 9.65406 10.728 9.34206C10.308 9.01806 10.146 8.52006 10.242 7.84806C10.374 6.84006 10.44 5.87406 10.44 4.95006C10.44 4.01406 10.38 3.07806 10.26 2.14206C10.152 1.39806 10.308 0.858058 10.728 0.522058C11.148 0.186058 11.724 0.0180581 12.456 0.0180581C13.092 0.0180581 13.614 0.162058 14.022 0.450058C14.43 0.726058 14.676 1.17006 14.76 1.78206L14.814 2.21406L15.426 2.14206ZM2.54102e-05 4.93206C2.54102e-05 4.23606 0.0720254 3.59406 0.216025 3.00606C0.372025 2.40606 0.636025 1.89006 1.00803 1.45806C1.39203 1.02606 1.90203 0.690058 2.53803 0.450058C3.18603 0.198058 4.00203 0.0720584 4.98603 0.0720584C5.95803 0.0720584 6.76203 0.198058 7.39803 0.450058C8.04603 0.690058 8.55603 1.02606 8.92803 1.45806C9.30003 1.89006 9.55803 2.40606 9.70203 3.00606C9.85803 3.59406 9.93603 4.23606 9.93603 4.93206C9.93603 5.61606 9.85203 6.24606 9.68403 6.82206C9.51603 7.39806 9.24003 7.89606 8.85603 8.31606C8.47203 8.73606 7.96203 9.06606 7.32603 9.30606C6.70203 9.53406 5.92203 9.64806 4.98603 9.64806C4.05003 9.64806 3.26403 9.53406 2.62803 9.30606C1.99203 9.06606 1.47603 8.73606 1.08003 8.31606C0.696025 7.89606 0.420025 7.39806 0.252025 6.82206C0.0840254 6.24606 2.54102e-05 5.61606 2.54102e-05 4.93206ZM3.61803 4.41006C3.89403 4.75806 4.24203 5.05806 4.66203 5.31006C5.08203 5.56206 5.52003 5.74206 5.97603 5.85006C6.08403 5.87406 6.16803 5.86206 6.22803 5.81406C6.30003 5.76606 6.34803 5.70606 6.37203 5.63406C6.40803 5.55006 6.41403 5.47206 6.39003 5.40006C6.37803 5.32806 6.33603 5.28006 6.26403 5.25606C5.83203 5.12406 5.43003 4.94406 5.05803 4.71606C4.68603 4.48806 4.33803 4.21206 4.01403 3.88806C3.95403 3.84006 3.88803 3.82806 3.81603 3.85206C3.74403 3.86406 3.68403 3.90006 3.63603 3.96006C3.58803 4.02006 3.55803 4.09206 3.54603 4.17606C3.53403 4.26006 3.55803 4.33806 3.61803 4.41006ZM7.03803 12.5821C7.01403 12.6421 7.02003 12.6961 7.05603 12.7441C7.09203 12.7921 7.14003 12.8281 7.20003 12.8521C7.60803 12.9481 7.96203 13.1281 8.26203 13.3921C8.56203 13.6441 8.71203 14.0341 8.71203 14.5621C8.71203 15.2101 8.34603 15.6721 7.61403 15.9481C6.88203 16.2361 5.87403 16.3801 4.59003 16.3801C3.30603 16.3801 2.29203 16.1701 1.54803 15.7501C0.816025 15.3301 0.450025 14.7241 0.450025 13.9321C0.450025 13.2961 0.618025 12.7381 0.954025 12.2581C1.30203 11.7661 1.80003 11.3521 2.44803 11.0161C3.10803 10.6801 3.90603 10.4281 4.84203 10.2601C5.79003 10.0921 6.87003 10.0081 8.08203 10.0081C10.398 10.0081 12.144 10.3741 13.32 11.1061C14.508 11.8261 15.102 12.8041 15.102 14.0401C15.102 14.7721 14.904 15.3421 14.508 15.7501C14.112 16.1701 13.398 16.3801 12.366 16.3801C11.322 16.3801 10.548 16.2181 10.044 15.8941C9.55203 15.5821 9.28203 15.1201 9.23403 14.5081C9.18603 13.8601 8.98803 13.3861 8.64003 13.0861C8.29203 12.7861 7.84803 12.5701 7.30803 12.4381C7.16403 12.4021 7.07403 12.4501 7.03803 12.5821Z" fill="#542F1A"/>
<path d="M18.0395 9.16206C17.9075 7.99806 17.7995 6.84006 17.7155 5.68806C17.6315 4.52406 17.6135 3.31206 17.6615 2.05206C17.6855 1.44006 17.9195 0.948058 18.3635 0.576058C18.8075 0.192058 19.3895 5.82933e-05 20.1095 5.82933e-05C20.8295 5.82933e-05 21.4115 0.192058 21.8555 0.576058C22.2995 0.948058 22.5335 1.44006 22.5575 2.05206C22.5935 3.31206 22.5695 4.52406 22.4855 5.68806C22.4015 6.84006 22.2935 7.99806 22.1615 9.16206C22.1015 9.71406 21.9035 10.1581 21.5675 10.4941C21.2435 10.8301 20.7575 10.9981 20.1095 10.9981C19.4615 10.9981 18.9695 10.8301 18.6335 10.4941C18.2975 10.1581 18.0995 9.71406 18.0395 9.16206ZM17.7155 14.2921C17.7155 13.5361 17.9315 12.9361 18.3635 12.4921C18.8075 12.0481 19.3895 11.8261 20.1095 11.8261C20.8415 11.8261 21.4235 12.0481 21.8555 12.4921C22.2875 12.9361 22.5035 13.5361 22.5035 14.2921C22.5035 14.6041 22.4435 14.8861 22.3235 15.1381C22.2035 15.4021 22.0355 15.6301 21.8195 15.8221C21.6155 16.0141 21.3635 16.1641 21.0635 16.2721C20.7755 16.3801 20.4575 16.4341 20.1095 16.4341C19.7615 16.4341 19.4375 16.3801 19.1375 16.2721C18.8495 16.1641 18.5975 16.0141 18.3815 15.8221C18.1775 15.6301 18.0155 15.4021 17.8955 15.1381C17.7755 14.8861 17.7155 14.6041 17.7155 14.2921Z" fill="#B93333"/>
</svg>
